<svg xmlns="http://www.w3.org/2000/svg" fill="none" class="design-iconfont" viewBox="0 0 82 84"><rect width="44" height="84" x="37.5" fill="url(#a)" rx="4"/><rect width="25" height="25" x="47.5" y="12.5" stroke="#C4CEE2" stroke-dasharray="2 2" rx="3.5"/><rect width="26" height="26" x="47" y="49" fill="#D9E1F2" fill-opacity=".65" rx="4"/><g filter="url(#b)"><rect width="26" height="26" x="5.5" y="36" fill="#D8E0F0" rx="4"/><rect width="27.2" height="27.2" x="4.9" y="35.4" stroke="#fff" stroke-width="1.2" rx="4.6"/></g><g filter="url(#c)"><path fill="#fff" d="m33.5 53-8 8 5.22 5.22L33.5 69l8-8zm-2 11h-1v-1h1zm0-5h-1v-1h1zm5 5h-1v-1h1zm-1-6h1v1h-1z"/><path fill="#A2B1CD" d="m40.05 60.98-2.56-2.81V60h-8.01v-1.83l-2.57 2.81 2.57 2.81v-1.81h8.01v1.81z"/><path fill="#A2B1CD" d="M34.47 60.99h.01v-4h1.81l-2.8-2.57-2.81 2.57h1.81v8h-1.82l2.8 2.57 2.81-2.57h-1.81z"/></g><g filter="url(#d)"><path stroke="url(#e)" stroke-linecap="round" stroke-opacity=".45" d="M39.818 19.57c-3.833-.166-15.08 1.34-18.546 11.587"/></g><path stroke="url(#f)" stroke-linecap="round" stroke-width="1.5" d="M39.704 18.32c-3.833-.167-14.5.5-19 13"/><path stroke="#C4D1EC" stroke-linecap="round" stroke-linejoin="round" stroke-width="1.5" d="m18.534 28.273 1.408 4.32 4.32-1.408"/><defs><linearGradient id="a" x1="59.5" x2="59.5" y1="6.727" y2="89.521" gradientUnits="userSpaceOnUse"><stop stop-color="#fff"/><stop offset="1" stop-color="#E6ECF7"/></linearGradient><linearGradient id="e" x1="29.178" x2="39.818" y1="23.839" y2="19.2" gradientUnits="userSpaceOnUse"><stop stop-color="#B5C2DD"/><stop offset="1" stop-color="#B5C2DD" stop-opacity="0"/></linearGradient><linearGradient id="f" x1="22.954" x2="41.6" y1="27.336" y2="17.695" gradientUnits="userSpaceOnUse"><stop stop-color="#C4D1EC"/><stop offset="1" stop-color="#C4D1EC" stop-opacity="0"/></linearGradient><filter id="b" width="36.4" height="36.398" x=".3" y="32.801" color-interpolation-filters="sRGB" filterUnits="userSpaceOnUse"><feFlood flood-opacity="0" result="BackgroundImageFix"/><feColorMatrix in="SourceAlpha" result="hardAlpha" values="0 0 0 0 0 0 0 0 0 0 0 0 0 0 0 0 0 0 127 0"/><feOffset dy="2"/><feGaussianBlur stdDeviation="2"/><feComposite in2="hardAlpha" operator="out"/><feColorMatrix values="0 0 0 0 0.514688 0 0 0 0 0.565988 0 0 0 0 0.675 0 0 0 0.31 0"/><feBlend in2="BackgroundImageFix" result="effect1_dropShadow_5970_49812"/><feBlend in="SourceGraphic" in2="effect1_dropShadow_5970_49812" result="shape"/><feColorMatrix in="SourceAlpha" result="hardAlpha" values="0 0 0 0 0 0 0 0 0 0 0 0 0 0 0 0 0 0 127 0"/><feOffset dy="1"/><feGaussianBlur stdDeviation=".5"/><feComposite in2="hardAlpha" k2="-1" k3="1" operator="arithmetic"/><feColorMatrix values="0 0 0 0 0 0 0 0 0 0 0 0 0 0 0 0 0 0 0.05 0"/><feBlend in2="shape" result="effect2_innerShadow_5970_49812"/></filter><filter id="c" width="20" height="20" x="23.5" y="52" color-interpolation-filters="sRGB" filterUnits="userSpaceOnUse"><feFlood flood-opacity="0" result="BackgroundImageFix"/><feColorMatrix in="SourceAlpha" result="hardAlpha" values="0 0 0 0 0 0 0 0 0 0 0 0 0 0 0 0 0 0 127 0"/><feOffset dy="1"/><feGaussianBlur stdDeviation="1"/><feColorMatrix values="0 0 0 0 0 0 0 0 0 0 0 0 0 0 0 0 0 0 0.1 0"/><feBlend in2="BackgroundImageFix" result="effect1_dropShadow_5970_49812"/><feBlend in="SourceGraphic" in2="effect1_dropShadow_5970_49812" result="shape"/></filter><filter id="d" width="21.547" height="14.598" x="19.771" y="18.059" color-interpolation-filters="sRGB" filterUnits="userSpaceOnUse"><feFlood flood-opacity="0" result="BackgroundImageFix"/><feBlend in="SourceGraphic" in2="BackgroundImageFix" result="shape"/><feGaussianBlur result="effect1_foregroundBlur_5970_49812" stdDeviation=".5"/></filter></defs></svg>