<svg width="19" height="18" viewBox="0 0 19 18" fill="none" xmlns="http://www.w3.org/2000/svg">
<path d="M2.75005 9C2.75005 8.00589 3.55594 7.2 4.55005 7.2H7.25005C8.24416 7.2 9.05005 8.00589 9.05005 9C9.05005 9.99411 8.24416 10.8 7.25005 10.8H4.55005C3.55594 10.8 2.75005 9.99411 2.75005 9Z" stroke="url(#paint0_linear_1757_74041)" stroke-width="0.9"/>
<path fill-rule="evenodd" clip-rule="evenodd" d="M7.0897 6.75078C7.21929 6.52566 7.37066 6.31797 7.54305 6.13033C8.19851 5.41692 9.19674 4.95078 10.5801 4.95078C10.8286 4.95078 11.0301 4.74931 11.0301 4.50078C11.0301 4.25225 10.8286 4.05078 10.5801 4.05078C8.98104 4.05078 7.72926 4.59741 6.88031 5.52143C6.54667 5.88456 6.28135 6.29928 6.0825 6.75078H7.0897ZM7.06236 11.2508H6.06152C6.26255 11.721 6.5348 12.1524 6.88031 12.5285C7.72926 13.4525 8.98104 13.9991 10.5801 13.9991C10.8286 13.9991 11.0301 13.7976 11.0301 13.5491C11.0301 13.3006 10.8286 13.0991 10.5801 13.0991C9.19674 13.0991 8.19851 12.633 7.54305 11.9196C7.35839 11.7186 7.19784 11.4946 7.06236 11.2508Z" fill="url(#paint1_linear_1757_74041)"/>
<path fill-rule="evenodd" clip-rule="evenodd" d="M12.8231 11.2343C12.8985 11.099 13.1029 11.099 13.1782 11.2343C13.6965 12.1657 14.4678 12.9369 15.3991 13.4551C15.5345 13.5304 15.5345 13.7349 15.3991 13.8103C14.4678 14.3285 13.6966 15.0997 13.1783 16.031C13.1029 16.1664 12.8985 16.1664 12.8232 16.031C12.3049 15.0997 11.5336 14.3284 10.6023 13.8102C10.4669 13.7349 10.4669 13.5304 10.6023 13.4551C11.5336 12.9369 12.3048 12.1657 12.8231 11.2343Z" fill="url(#paint2_linear_1757_74041)"/>
<path d="M10.8501 4.5C10.8501 3.50589 11.656 2.7 12.6501 2.7H14.4501C15.4443 2.7 16.2501 3.50589 16.2501 4.5C16.2501 5.49411 15.4443 6.3 14.4501 6.3H12.6501C11.656 6.3 10.8501 5.49411 10.8501 4.5Z" stroke="url(#paint3_linear_1757_74041)" stroke-width="0.9"/>
<path d="M15.5 9L15.9051 10.0949L17 10.5L15.9051 10.9051L15.5 12L15.0949 10.9051L14 10.5L15.0949 10.0949L15.5 9Z" fill="url(#paint4_linear_1757_74041)"/>
<defs>
<linearGradient id="paint0_linear_1757_74041" x1="0.745503" y1="6.26786" x2="7.11648" y2="13.0199" gradientUnits="userSpaceOnUse">
<stop stop-color="#FF82A8"/>
<stop offset="1" stop-color="#9D59F3"/>
</linearGradient>
<linearGradient id="paint1_linear_1757_74041" x1="4.98877" y1="2.98489" x2="13.4026" y2="5.76832" gradientUnits="userSpaceOnUse">
<stop stop-color="#FF82A8"/>
<stop offset="1" stop-color="#9D59F3"/>
</linearGradient>
<linearGradient id="paint2_linear_1757_74041" x1="9.4212" y1="10.5971" x2="15.95" y2="14.9219" gradientUnits="userSpaceOnUse">
<stop stop-color="#FF82A8"/>
<stop offset="1" stop-color="#9D59F3"/>
</linearGradient>
<linearGradient id="paint3_linear_1757_74041" x1="9.03992" y1="1.76786" x2="15.4035" y2="7.6691" gradientUnits="userSpaceOnUse">
<stop stop-color="#FF82A8"/>
<stop offset="1" stop-color="#9D59F3"/>
</linearGradient>
<linearGradient id="paint4_linear_1757_74041" x1="13.3523" y1="8.67857" x2="17.2697" y2="11.2734" gradientUnits="userSpaceOnUse">
<stop stop-color="#FF82A8"/>
<stop offset="1" stop-color="#9D59F3"/>
</linearGradient>
</defs>
</svg>
