<svg width="22" height="22" viewBox="0 0 22 22" fill="none" xmlns="http://www.w3.org/2000/svg">
<path fill-rule="evenodd" clip-rule="evenodd" d="M18.1172 3.67578H20.3391L20.3391 6.05576C20.3391 6.77794 19.7536 7.36339 19.0314 7.36339L16.8096 7.36339V4.98341C16.8096 4.26123 17.395 3.67578 18.1172 3.67578ZM18.1188 9.11133L20.3407 9.11133L20.3407 17.0675C20.3407 17.7897 19.7552 18.3751 19.0331 18.3751H16.8112L16.8112 10.419C16.8112 9.69677 17.3966 9.11133 18.1188 9.11133Z" fill="url(#paint0_linear_1587_89777)"/>
<path fill-rule="evenodd" clip-rule="evenodd" d="M7.05612 4.858L0.785156 18.3772L4.10197 18.377C4.61706 18.377 5.08228 18.0758 5.30322 17.5992L8.79953 10.0586L12.2958 17.5992C12.5168 18.0758 12.982 18.377 13.4971 18.377L16.8139 18.3772L10.5429 4.858C10.5078 4.76777 10.4663 4.6803 10.4188 4.59637C10.1015 3.99483 9.49059 3.61914 8.81746 3.61914C8.81147 3.61914 8.80549 3.61917 8.79953 3.61923C8.79356 3.61917 8.78758 3.61914 8.7816 3.61914C8.10846 3.61914 7.4975 3.99483 7.18021 4.59638C7.13277 4.6803 7.09124 4.76777 7.05612 4.858Z" fill="url(#paint1_linear_1587_89777)"/>
<defs>
<linearGradient id="paint0_linear_1587_89777" x1="16.0472" y1="2.10085" x2="22.5174" y2="3.1304" gradientUnits="userSpaceOnUse">
<stop stop-color="#FF82A8"/>
<stop offset="1" stop-color="#9D59F3"/>
</linearGradient>
<linearGradient id="paint1_linear_1587_89777" x1="-2.67559" y1="2.03792" x2="17.168" y2="16.3138" gradientUnits="userSpaceOnUse">
<stop stop-color="#FF82A8"/>
<stop offset="1" stop-color="#9D59F3"/>
</linearGradient>
</defs>
</svg>
