<svg xmlns="http://www.w3.org/2000/svg" width="29" height="27" fill="none"><g fill="#fff" fill-rule="evenodd" clip-rule="evenodd" filter="url(#a)"><path d="M23.327 4.598h2.811V7.41c0 .853-.691 1.545-1.545 1.545h-2.811V6.143c0-.854.691-1.545 1.545-1.545m.001 6.423h2.812v9.4c0 .854-.692 1.546-1.545 1.546h-2.812v-9.4c0-.854.692-1.546 1.545-1.546"/><path d="M9.739 5.998 2 21.968l4.11-.001c.625 0 1.195-.358 1.468-.92l4.315-8.908 4.315 8.907c.273.563.843.92 1.469.92l4.109.001-7.739-15.969a2.3 2.3 0 0 0-2.15-1.469h-.008A2.3 2.3 0 0 0 9.74 6"/></g><defs><filter id="a" width="30" height="30" x="0" y="-.752" color-interpolation-filters="sRGB" filterUnits="userSpaceOnUse"><feFlood flood-opacity="0" result="BackgroundImageFix"/><feColorMatrix in="SourceAlpha" result="hardAlpha" values="0 0 0 0 0 0 0 0 0 0 0 0 0 0 0 0 0 0 127 0"/><feOffset dy="1"/><feGaussianBlur stdDeviation="1"/><feComposite in2="hardAlpha" operator="out"/><feColorMatrix values="0 0 0 0 1 0 0 0 0 0.113725 0 0 0 0 0.326431 0 0 0 0.4 0"/><feBlend in2="BackgroundImageFix" result="effect1_dropShadow_24393_29969"/><feBlend in="SourceGraphic" in2="effect1_dropShadow_24393_29969" result="shape"/></filter></defs></svg>