<svg xmlns="http://www.w3.org/2000/svg" width="23" height="22" fill="none"><path fill="url(#a)" fill-rule="evenodd" d="M18.618 3.676h2.222v2.38c0 .722-.586 1.307-1.308 1.307H17.31v-2.38c0-.722.585-1.307 1.308-1.307m.001 5.435h2.222v7.956c0 .723-.585 1.308-1.308 1.308h-2.221V10.42c0-.722.585-1.308 1.307-1.308" clip-rule="evenodd"/><path fill="url(#b)" fill-rule="evenodd" d="m7.557 4.86-6.27 13.52 3.316-.001c.515 0 .98-.301 1.201-.778l3.496-7.54 3.497 7.54c.22.477.686.778 1.201.778h3.317L11.044 4.86a2 2 0 0 0-.124-.262 1.81 1.81 0 0 0-1.637-.977 1.81 1.81 0 0 0-1.602.977 2 2 0 0 0-.124.262" clip-rule="evenodd"/><defs><linearGradient id="a" x1="18.531" x2="25.505" y1="3.676" y2="5.973" gradientUnits="userSpaceOnUse"><stop stop-color="#FF8D68"/><stop offset="1" stop-color="#FF4C82"/></linearGradient><linearGradient id="b" x1="9.926" x2="5.196" y1="4.01" y2="18.26" gradientUnits="userSpaceOnUse"><stop stop-color="#FF8D68"/><stop offset="1" stop-color="#FF4C82"/></linearGradient></defs></svg>