<svg xmlns="http://www.w3.org/2000/svg" width="90" height="16" fill="none"><path fill="#212930" d="M1.365 3.159h3.484v.923a26 26 0 0 1-.429 1.651q-.208.728-.507 1.521.142.3.286.585.156.285.273.637.117.338.182.78.078.429.078 1.014 0 .39-.052.689-.039.3-.156.52a.9.9 0 0 1-.338.338 1.5 1.5 0 0 1-.559.182l-.741.104-.338-.91.611-.078q.39-.052.546-.208.156-.17.156-.65 0-.52-.078-.936a4.3 4.3 0 0 0-.208-.754 3.4 3.4 0 0 0-.286-.624q-.17-.3-.351-.572.325-.78.598-1.625a20 20 0 0 0 .455-1.664H2.288v10.192h-.923zM12.22 4.316h-1.079v8.528q0 .351-.078.572a.7.7 0 0 1-.247.377 1.1 1.1 0 0 1-.468.208q-.285.078-.715.117l-.897.078-.325-.949 1.105-.078q.208-.013.325-.052a.4.4 0 0 0 .195-.117.5.5 0 0 0 .104-.234q.026-.143.026-.377V4.316H5.291v-.923h6.929zm-3.354 6.76H5.447V6.084h3.419zm-.884-4.121H6.331v3.25h1.651zm16.996 5.967v.884H13.434v-.884h5.265v-1.625h-4.147V10.4h4.147V8.957H14.72V3.185h8.853v5.772h-3.9V10.4h4.173v.897h-4.173v1.625zm-9.334-8.866v1.599h3.055V4.056zm6.955 0h-2.925v1.599h2.925zm-3.9 4.03V6.487h-3.055v1.599zm3.9 0V6.487h-2.925v1.599zm14.864 3.237a5 5 0 0 1-.04.312 7 7 0 0 0-.051.351 4 4 0 0 1-.052.442 3.3 3.3 0 0 1-.195.728q-.117.273-.3.416a.87.87 0 0 1-.428.208 3.6 3.6 0 0 1-.598.065q-.612.025-1.521.039-.91.026-1.911.026-.988.014-1.95 0a40 40 0 0 1-1.651-.052 1.6 1.6 0 0 1-.65-.143 1.2 1.2 0 0 1-.416-.325 1.1 1.1 0 0 1-.221-.403 2 2 0 0 1-.052-.429V3.315h9.022v5.33h-8.021v3.77q0 .377.48.416.417.026.976.052l1.209.026h1.326q.676 0 1.287-.013.624-.013 1.144-.026.52-.026.87-.052.378-.026.495-.208.117-.195.169-.481.039-.234.052-.442.025-.22.052-.39.012-.195.026-.364zm-9.035-3.614h3.068V4.225h-3.068zm7.007-3.484h-2.951v3.484h2.95zm14.825 7.098q-.013.143-.04.312a7 7 0 0 0-.051.351 4 4 0 0 1-.052.442 3.3 3.3 0 0 1-.195.728 1.03 1.03 0 0 1-.3.416.87.87 0 0 1-.428.208 3.6 3.6 0 0 1-.598.065q-.612.025-1.521.039-.91.026-1.911.026-.989.014-1.95 0a40 40 0 0 1-1.651-.052 1.6 1.6 0 0 1-.65-.143 1.2 1.2 0 0 1-.416-.325 1.1 1.1 0 0 1-.221-.403 2 2 0 0 1-.052-.429V3.315h9.022v5.33h-8.021v3.77q0 .377.48.416.417.026.976.052l1.209.026h1.326q.676 0 1.287-.013.624-.013 1.144-.026.52-.026.87-.052.378-.026.495-.208.117-.195.169-.481.039-.234.052-.442.025-.22.052-.39.012-.195.026-.364zm-9.035-3.614h3.068V4.225h-3.068zm7.007-3.484H45.28v3.484h2.95zm15.072 3.029v.832H51.876v-.832h3.979V4.745h-3.38v-.832h3.041a8 8 0 0 0-.441-.598q-.235-.285-.417-.494l.715-.481q.222.26.508.611.298.351.52.676l-.378.286h2.652q.144-.169.3-.377.168-.208.325-.416.156-.22.286-.416.143-.208.233-.364l.741.455q-.13.22-.35.52-.209.3-.43.598h2.938v.832h-3.38v2.509zm-6.54 0h1.664V4.745h-1.663zm-2.197-.013a7 7 0 0 0-.325-.468 8 8 0 0 0-.415-.533 6 6 0 0 0-.442-.494 4 4 0 0 0-.377-.377l.597-.585a14 14 0 0 1 1.249 1.326q.207.234.337.403zm5.37-.65q.168-.17.377-.39a21 21 0 0 0 .844-.949 7 7 0 0 0 .325-.416l.664.52q-.144.181-.352.429l-.428.481a24 24 0 0 1-.806.858zm-6.28 2.483h7.879v5.213h-.91v-.585h-6.058v.598h-.91zm.91.858v1.079h6.059V9.932zm6.059 2.938v-1.053h-6.058v1.053zm9.325-8.528h-4.914v-.78h4.914V2.548l.871.039v.975h4.914v.78h-4.914v.741h3.835v3.601h-.663q.17.169.39.416.222.247.455.533.234.285.455.598.234.3.416.572l-.624.585a7 7 0 0 0-.338-.52q-.195-.285-.403-.572l-1.118.039q-.754.013-1.69.052-.922.026-1.924.065-1 .026-1.872.052-.87.026-1.508.052-.636.026-.819.026l-.052-.819q.17 0 .624-.013.455-.013 1.08-.026.623-.013 1.364-.026a92 92 0 0 0 1.521-.039v-.975h-3.887V5.083h3.887zm-2.938 1.469v.728h2.938v-.728zm3.81 0v.728h2.885v-.728zm-.872 2.145v-.767h-2.938v.767zm.871 0h2.886v-.767h-2.886zm2.964 1.612a8 8 0 0 0-.247-.26 7 7 0 0 0-.195-.234l.585-.39h-3.107v.962q.885-.025 1.651-.039.78-.014 1.313-.039m-3.419.858q.117.117.312.325.195.195.39.416.208.22.403.455.195.22.325.39l-.637.598a6 6 0 0 0-.312-.455q-.195-.26-.403-.507a5 5 0 0 0-.39-.442 7 7 0 0 0-.286-.312zm-5.733 3.081a9.6 9.6 0 0 0 .884-1.248 10 10 0 0 0 .715-1.365l.806.377q-.168.377-.377.767-.195.376-.403.741-.207.351-.416.663-.208.312-.403.546zm9.646-2.613q.183.208.403.494.222.273.442.585.234.312.455.65.234.338.43.65l-.768.559a19 19 0 0 0-.806-1.339 10 10 0 0 0-.832-1.131zm-1.78 1.625q.026-.182.038-.364l.026-.39.884.325-.052.403-.052.39q-.065.35-.169.559a.75.75 0 0 1-.26.325q-.168.117-.429.156a5 5 0 0 1-.637.078 20 20 0 0 1-2.548 0q-.819-.053-1.157-.312-.338-.247-.338-.871v-1.742l.988.052v1.352q0 .416.17.533.168.13.65.169 1 .078 1.975 0 .248-.013.416-.052a.6.6 0 0 0 .26-.091.4.4 0 0 0 .156-.182 1.4 1.4 0 0 0 .078-.338m13.082-6.786q.365.897.767 1.677.417.78.884 1.456.468.675 1.001 1.274.547.585 1.183 1.118l-.689.832q-.727-.676-1.287-1.365-.559-.702-1-1.417a15 15 0 0 1-.794-1.495 23 23 0 0 1-.663-1.612v4.927h2.262v.897h-2.262V14.3h-.988v-2.275h-2.184l.026-.897h2.158V6.37a12.8 12.8 0 0 1-1.378 2.977 18.5 18.5 0 0 1-2.04 2.626l-.729-.702v2.925H78.9V7.631q-.246.416-.533.845-.273.43-.598.845l-.728-.65q1.209-1.624 1.911-3.172.703-1.56 1.053-2.873l.923.286q-.168.56-.429 1.3-.26.728-.65 1.586v5.447q1.08-1.053 2.041-2.444.975-1.39 1.547-3.068h-2.574V4.81h3.133V2.6l.988.039V4.81h3.523v.923z"/></svg>