<svg xmlns="http://www.w3.org/2000/svg" width="29" height="16" fill="none"><path fill="#212930" d="M4.266 6.896q1.396-.113 1.396-1.625 0-1.713-1.993-1.764h-.813v3.39zm.228-3.91Q7.021 3 7.021 5.17q0 1.334-1.384 1.98 2.056.318 2.107 2.31 0 2.54-2.983 2.54H.622q.927-.432.927-1.143V4.13q0-.711-.927-1.143zM2.856 7.57v3.123q0 .762 1.041.762h.28q2.107-.012 2.107-1.917 0-1.917-1.726-1.968zm9.903.559q-.051-1.752-1.143-1.777-1.08 0-1.409 1.777zm-1.244 3.897q-2.692-.05-2.831-3.212.14-3.045 2.83-3.06 2.578 0 2.578 3.01h-3.923q.026 2.551 1.65 2.552 1.181 0 1.714-1.194l.368.254q-.583 1.587-2.386 1.65m7.07-3.567q-.38.343-1.37.622t-.99 1.257q.051 1.117 1.383 1.117.572 0 .978-.368zm-.99-2.704q2.3.012 2.35 1.892v3.414q0 .28.203.28.088 0 .698.152a1.43 1.43 0 0 1-1.067.533q-.596 0-.977-.393-.736.393-1.917.393-1.88-.164-1.905-1.625 0-1.611 1.6-1.853 1.587-.267 2.057-.787v-.724q-.09-.774-.711-.774-.609 0-.711.444a1.36 1.36 0 0 1-.432.736.76.76 0 0 1-.495.19q-.71-.024-.71-.723.012-.546.697-.85a3.2 3.2 0 0 1 1.32-.305m4.482 1.32q-.063-.61-.977-1.13l1.168-.025q.52-.038 1.117-.114v4.113q0 1.295 1.015 1.295.864 0 1.625-.978v-3.16q-.063-.61-.99-1.13.28 0 .61-.013.228 0 .558-.013.52-.038 1.13-.114v4.938q.051.585.978 1.117-.622 0-1.156.038-.24.013-.558.051a1 1 0 0 0-.14.013 1 1 0 0 0-.14.013l-.292.025v-.94q-.837.953-2.03.965-.966-.025-1.435-.52-.483-.521-.483-1.536z"/></svg>