<svg xmlns="http://www.w3.org/2000/svg" width="37" height="16" fill="none"><path fill="#212930" d="M5.954 7.606q.376.338.598.832.234.48.234 1.04 0 .52-.208.975-.195.455-.533.806-.338.338-.793.533t-.975.195H.936V8.204a.8.8 0 0 1-.351-.156.426.426 0 0 1 0-.611.7.7 0 0 1 .351-.169V3.485h3.081q.52 0 .975.208.455.195.793.533t.533.806q.208.454.208.975 0 .455-.156.858a3 3 0 0 1-.416.741m-3.458-.65h1.521q.39 0 .663-.273a.92.92 0 0 0 .286-.676.9.9 0 0 0-.286-.676.88.88 0 0 0-.663-.286H2.496zm1.781 3.471q.39 0 .663-.273a.92.92 0 0 0 .286-.676.9.9 0 0 0-.286-.676.88.88 0 0 0-.663-.286H2.496v1.911zm6.56-4.602q.598 0 1.105.221.508.208.871.598.378.377.585.897.208.52.208 1.131v.715H9.264q.143.507.572.845.443.325 1.001.325a1.6 1.6 0 0 0 1.261-.598l1.105.923q-.441.533-1.066.819-.61.285-1.3.286a3.03 3.03 0 0 1-2.17-.897 3.03 3.03 0 0 1-.91-2.184q0-.624.233-1.183.235-.56.676-.988.43-.442.988-.676a3 3 0 0 1 1.183-.234m0 1.43q-.493 0-.897.273a1.7 1.7 0 0 0-.598.689h2.782a1.33 1.33 0 0 0-.468-.702 1.3 1.3 0 0 0-.819-.26m6.114-1.391q.39-.078.832.026t.715.416l-1.014.949a1.5 1.5 0 0 0-.182-.156.6.6 0 0 0-.195-.091.36.36 0 0 0-.234 0q-.3.078-.52.637-.208.546-.208 1.807v2.535h-1.43V5.825h1.43v.481q.324-.35.806-.442m4.775 4.693q.195 0 .364-.143l.962 1.053a1.88 1.88 0 0 1-1.326.52 2 2 0 0 1-.78-.156 2.2 2.2 0 0 1-.624-.416 2.2 2.2 0 0 1-.416-.624 2 2 0 0 1-.156-.78V6.995h-.858v-1.17h.858V4.278l1.43-.793v2.34h1.39v1.17h-1.39v3.016q0 .22.156.39a.56.56 0 0 0 .39.156m4.987-4.732q.558 0 1.053.221a2.67 2.67 0 0 1 1.469 1.469q.22.494.22 1.053v3.419h-1.43V8.568q0-.273-.103-.507a1.4 1.4 0 0 0-.286-.416 1.2 1.2 0 0 0-.416-.286 1.2 1.2 0 0 0-.507-.104.9.9 0 0 0-.546.169 1.5 1.5 0 0 0-.338.312q-.195.234-.312.52a1.5 1.5 0 0 0-.117.572v3.159h-1.43V3.485h1.43v2.73a1 1 0 0 0 .09-.052l.105-.052q.546-.285 1.118-.286m8.098 0h1.43v6.162h-1.43v-.429l-.156.104a3 3 0 0 1-.169.078 2.7 2.7 0 0 1-1.157.247q-.61 0-1.144-.247a2.8 2.8 0 0 1-.923-.676 3.1 3.1 0 0 1-.624-.975 3.4 3.4 0 0 1-.208-1.183q0-.61.208-1.157.22-.559.624-1.001a2.7 2.7 0 0 1 .923-.663q.56-.26 1.144-.26.599 0 1.157.26.195.078.325.169zm-1.482 4.732q.312 0 .572-.13.273-.13.468-.351.208-.22.325-.52a1.84 1.84 0 0 0 0-1.287 1.6 1.6 0 0 0-.325-.52 1.37 1.37 0 0 0-1.04-.494q-.3 0-.572.13-.26.13-.468.364a1.7 1.7 0 0 0-.312.52q-.117.3-.117.637 0 .338.117.65.117.3.312.52.209.22.468.351.273.13.572.13"/></svg>