<svg xmlns="http://www.w3.org/2000/svg" width="52" height="16" fill="none"><path fill="#212930" d="M4.069 4.173H1.027v-.741h2.886L3.64 2.21l.819-.13.299 1.352h3.133l.286-1.456.858.13-.299 1.326h3.016l-.169.741H8.58l-.299 1.339-.767-.104.234-1.235H4.927q.117.495.247 1.105l-.832.143zM6.851 5.46q.82.468 5.59 3.237l-.273.195-.091.533L6.188 5.98q-2.86 2.262-5.187 3.861l-.234-.403-.325-.143A155 155 0 0 0 6.63 4.576l.572.598a8 8 0 0 0-.351.286M11.037 13q.481 0 .806-.182l-.208.962H4.251q-.793 0-.793-.78V8.346q.247.117.403.13H8.71q.22 0 .195.221-.09.923-.286 3.328l-1.066-.455.247-.091.195-2.249H4.238V13zm14.209-1.56-2.366.208v2.457h-.884v-2.366q-4.42.416-7.917.78l.013-.546-.13-.273 2.431-.234V4.381q0-.39-.013-.52-1.248 0-1.846.013l.052-.52-.117-.286H24.7l-.143.793-1.677-.013v7.007l2.483-.234zm-8.008-7.592v1.885h4.758V4.68q0-.416-.026-.832zm0 4.498h4.758V6.474q-2.64-.026-4.758.013zm4.758 2.6V9.1a218 218 0 0 0-4.758 0v2.288zM37.128 4.55a310 310 0 0 0-7.449.013l-.221 2.561h7.02q.234 0 .208.247a614 614 0 0 1-.533 6.786l-1.17-.533.299-.091.442-5.551h-7.228l.429-5.187q.052-.442 0-.767.611.156.949.117l-.13 1.586h7.514zm-2.145 5.616-.13.793a364 364 0 0 0-8.177.013l.065-.533-.117-.273zm10.101-1.885v-.923q-2.717 0-3.965.013l.065-.416-.104-.221h4.004v-.871h-3.952l.143-3.224q7.007.013 8.242.026.286 0 .286.26-.052 1.08-.091 2.938h-3.796v.871h3.926l-.104.637q-1.184-.013-3.822-.013v.923h5.109l-.13.663a531 531 0 0 0-9.1 0l.455.416-1.482 2.002-.247-.481-.299-.156 1.417-1.781-1.638.013.065-.442-.104-.234zm-3.016-3.055h3.016V3.224h-3.016zm4.251-.312a30 30 0 0 0 1.404-1.69h-1.885v2.002h.806l-.104-.208zm2.496-1.69h-1.053l.403.481a21 21 0 0 1-1.274 1.521h1.924zM44.343 4.81l-.52.39-1.209-1.417.52-.377zM43.29 9.204l.728-.273.897 1.742-.728.286zm5.07.195.637-.429 1.586 1.937-.65.455zm-2.392-.078.741-.273.858 1.625-.754.286zm5.135 3.705-.13.676a678 678 0 0 0-11.011.013l.065-.442-.117-.247h5.148v-1.04q-2.625 0-3.835.013l.065-.429-.104-.234h3.874v-.741q0-.273-.052-.39.572.09.871.078v1.053h3.939l-.104.663q-1.196-.013-3.835-.013v1.04z"/></svg>