<svg xmlns="http://www.w3.org/2000/svg" xmlns:xlink="http://www.w3.org/1999/xlink" width="122" height="79"><defs><linearGradient id="a" x1="100%" x2="100%" y1="100%" y2="0%"><stop offset="0%" stop-color="#E4EAF5"/><stop offset="100%" stop-color="#F7FAFF"/></linearGradient><linearGradient id="b" x1="335.001%" x2="335.001%" y1="100%" y2="-599.999%"><stop offset="0%" stop-color="#E4EAF5"/><stop offset="100%" stop-color="#F7FAFF"/></linearGradient><linearGradient id="e" x1="67.443%" x2="32.557%" y1="22.181%" y2="77.819%"><stop offset="0%" stop-color="#B4CFFD"/><stop offset="100%" stop-color="#6AA1FF"/></linearGradient><linearGradient id="f" x1="63.248%" x2="33.742%" y1="25.801%" y2="74.697%"><stop offset="0%" stop-color="#B4CFFD"/><stop offset="100%" stop-color="#6AA1FF"/></linearGradient><path id="c" d="M2.38 12.097A15.654 15.654 0 0 1 17.626 0h1.61c.484 0 .877.393.877.878v37.848a8.236 8.236 0 0 1-16.293 1.709L.013 22.49a.6.6 0 0 1 .002-.256z"/></defs><g fill="none" fill-rule="evenodd" transform="translate(.212 .397)"><path fill="#C5D2E6" fill-rule="nonzero" d="M119.427.197a.932.932 0 1 1 1.146 1.47c-2.005 1.562-3.454 3.015-4.414 4.341l-.168.238.17.004c.808.03 1.577.184 2.27.486l.187.087c1.087.529 1.562 1.441 1.216 2.442-.235.677-.821 1.3-1.641 1.868-1.646 1.142-3.652 1.815-4.494.99-.698-.683-1.037-1.942-.789-3.414l.008-.045-.145.052c-1.96.709-3.839 1.948-4.846 3.234l-.105.137a.932.932 0 1 1-1.503-1.101c1.403-1.914 4.217-3.698 7.055-4.413l.298-.071.025-.049c.96-1.86 2.73-3.87 5.416-6.009zm-4.356 7.957-.095.012-.04.118-.056.175c-.28.936-.223 1.682-.038 2.091l.035.07.064-.012q.14-.027.32-.081l.122-.04a7.4 7.4 0 0 0 1.748-.885c.48-.334.807-.665.917-.889l.025-.058c.004-.013.009-.019-.001-.027l-.055-.028-.214-.102c-.763-.37-1.714-.46-2.732-.344"/><path fill="#C5D2E6" d="M.12 25.277a.93.93 0 0 0 .356 1.269l7.586 4.26a.932.932 0 0 0 .913-1.625l-7.587-4.26a.93.93 0 0 0-1.269.356m13.053-8.656a.93.93 0 0 0-.753 1.082l1.535 8.564a.932.932 0 1 0 1.834-.328l-1.534-8.565a.93.93 0 0 0-1.082-.753m-5.406 7.014a.932.932 0 0 1 1.586-.978l3.034 4.923a.932.932 0 1 1-1.587.977z"/><path fill="url(#a)" fill-rule="nonzero" d="M26.558 8.865c0-1.254 1.006-2.272 2.247-2.272h62.927c1.241 0 2.248 1.018 2.248 2.272v67.017c0 1.255-1.007 2.272-2.248 2.272H28.805c-1.241 0-2.247-1.017-2.247-2.272z"/><path fill="url(#b)" fill-rule="nonzero" d="M18.692 70.203c0-1.255 1.006-2.272 2.247-2.272h17.98c1.24 0 2.247 1.017 2.247 2.272v5.679c0 1.255-1.007 2.272-2.248 2.272H20.94c-1.241 0-2.247-1.017-2.247-2.272z"/><path fill="#DBE2F1" fill-rule="nonzero" d="M12.728 39.02a7.827 7.827 0 0 1 7.827-7.828h6.204c.485 0 .878.393.878.878V70.7a7.454 7.454 0 1 1-14.908 0z"/><path fill="#C4D1EC" fill-rule="nonzero" d="m75.823 57.442-7.72-7.987c2.396-2.396 3.727-5.59 3.727-9.051 0-7.455-5.857-13.311-13.311-13.311-7.455 0-13.311 5.856-13.311 13.31s5.856 13.312 13.31 13.312q3.595 0 6.39-1.598c0 .267.266.267.266.533l7.72 7.72a2.09 2.09 0 0 0 2.93 0 2.09 2.09 0 0 0 0-2.928m-17.304-7.72c-5.059 0-9.318-4.26-9.318-9.318 0-5.059 4.26-9.318 9.318-9.318s9.317 4.26 9.317 9.318-4.26 9.317-9.317 9.317"/><g transform="translate(7.525 31.192)"><mask id="d" fill="#fff"><use xlink:href="#c"/></mask><g fill-rule="nonzero" mask="url(#d)"><g transform="translate(3.522 7.263)"><path fill="#E1E3E6" d="M28.144 10.62 10.795.213A1.49 1.49 0 0 0 8.75.724L.213 14.954A1.49 1.49 0 0 0 .724 17l6.76 4.056 4.595 2.756 5.995 3.596a1.49 1.49 0 0 0 2.045-.511l8.537-14.231a1.49 1.49 0 0 0-.512-2.046"/><path fill="url(#e)" d="M28.144 10.62 10.795.213A1.49 1.49 0 0 0 8.75.724L.213 14.954A1.49 1.49 0 0 0 .724 17l6.76 4.056 4.595 2.756 5.995 3.596a1.49 1.49 0 0 0 2.045-.511l8.537-14.231a1.49 1.49 0 0 0-.512-2.046"/><rect width="14.508" height="1.491" x="7.934" y="10.868" fill="#EBF2FF" rx=".745" transform="rotate(30.959 15.189 11.613)"/><path fill="#EBF2FF" d="M5.983 12.858a.745.745 0 0 1 1.022-.256l7.016 4.209a.745.745 0 1 1-.767 1.278L6.238 13.88a.745.745 0 0 1-.255-1.022"/></g></g></g><path fill="#E1E3E6" fill-rule="nonzero" d="m93.514 11.684 10.907 5.073c.296.586-7.35 11.03-9.188 11.073-3.882.09-11.856-5.477-11.75-6.437 6.023-2.693 10.03-9.709 10.03-9.709"/><path fill="url(#f)" fill-rule="nonzero" d="m93.514 11.684 10.907 5.073c.296.586-7.35 11.03-9.188 11.073-3.882.09-11.856-5.477-11.75-6.437 6.023-2.693 10.03-9.709 10.03-9.709"/><rect width="5.619" height="1.049" x="92.97" y="18.308" fill="#FFF" fill-rule="nonzero" opacity=".8" rx=".525" transform="scale(-1 1)rotate(-17.314 0 647.891)"/><path fill="#FFF" fill-rule="nonzero" d="M96.594 22.953a.675.675 0 0 0-.32-.75l-2.91-1.54c-.255-.135-.527-.02-.608.26a.675.675 0 0 0 .32.749l2.91 1.54c.256.136.528.02.608-.259" opacity=".8"/></g></svg>