<svg width="402" height="262" viewBox="0 0 402 262" fill="none" xmlns="http://www.w3.org/2000/svg">
<rect width="402" height="262" rx="8" fill="#E8F8F7"/>
<g filter="url(#filter0_d_5688_9207)">
<rect x="15" y="22" width="115" height="100" rx="9.09002" fill="white" shape-rendering="crispEdges"/>
<path d="M64.85 61L79.25 61" stroke="#AADFE7" stroke-width="1.82404" stroke-linecap="round"/>
<path d="M78.8 40.4165C71.2109 39.553 60.6297 43.4386 58.1 53.8" stroke="#AADFE7" stroke-width="1.82404" stroke-linecap="round"/>
<path d="M78.8 81.5758C71.2109 82.4968 60.6297 78.3522 58.1 67.3" stroke="#AADFE7" stroke-width="1.82404" stroke-linecap="round"/>
<rect width="20.7" height="9.9" rx="3.23985" transform="matrix(-1 0 0 1 104 56.5)" fill="#AADFE7"/>
<rect width="20.7" height="9.9" rx="3.23985" transform="matrix(-1 0 0 1 104 76.3)" fill="#AADFE7"/>
<rect width="20.7" height="9.9" rx="3.23985" transform="matrix(-1 0 0 1 104 35.8)" fill="#AADFE7"/>
<rect x="41" y="54.7" width="23.4" height="12.6" rx="3.23985" fill="#63CBD1"/>
<path d="M50.831 100.128H58.667V105.48H50.831V100.128ZM54.335 102.396V100.92H51.731V102.396H54.335ZM55.187 102.396H57.767V100.92H55.187V102.396ZM54.335 103.188H51.731V104.676H54.335V103.188ZM55.187 103.188V104.676H57.767V103.188H55.187ZM55.463 108.18C55.335 107.9 55.131 107.556 54.851 107.148C54.579 106.732 54.335 106.392 54.119 106.128L54.779 105.672C54.979 105.888 55.227 106.2 55.523 106.608C55.819 107.016 56.035 107.344 56.171 107.592L55.463 108.18ZM56.771 107.688L57.575 107.94C57.527 108.46 57.447 108.92 57.335 109.32C57.271 109.552 57.127 109.724 56.903 109.836C56.687 109.948 56.339 110.016 55.859 110.04C55.619 110.056 55.255 110.064 54.767 110.064C54.287 110.064 53.923 110.056 53.675 110.04C53.203 110.016 52.863 109.908 52.655 109.716C52.447 109.524 52.343 109.22 52.343 108.804V106.2L53.195 106.236V108.468C53.195 108.732 53.251 108.92 53.363 109.032C53.475 109.136 53.671 109.196 53.951 109.212C54.151 109.228 54.451 109.236 54.851 109.236C55.243 109.236 55.539 109.228 55.739 109.212C56.027 109.204 56.235 109.16 56.363 109.08C56.491 109 56.575 108.88 56.615 108.72C56.687 108.48 56.739 108.136 56.771 107.688ZM58.463 106.296C58.703 106.632 58.987 107.092 59.315 107.676C59.651 108.26 59.895 108.736 60.047 109.104L59.279 109.608C59.111 109.176 58.871 108.66 58.559 108.06C58.255 107.452 57.991 106.996 57.767 106.692L58.463 106.296ZM49.475 109.32C49.715 108.904 49.947 108.444 50.171 107.94C50.403 107.428 50.595 106.924 50.747 106.428L51.563 106.644C51.123 107.892 50.687 108.9 50.255 109.668L49.475 109.32ZM71.8955 108.672V109.464H66.6155V110.34H65.8115V103.68C65.5795 104.096 65.3315 104.496 65.0675 104.88L64.4555 104.184C65.4155 102.856 66.1075 101.28 66.5315 99.456L67.4195 99.588C67.2355 100.276 67.0395 100.892 66.8315 101.436H68.8955C68.8235 101.148 68.7315 100.848 68.6195 100.536C68.5075 100.224 68.4075 99.972 68.3195 99.78L69.1715 99.588C69.2675 99.812 69.3795 100.108 69.5075 100.476C69.6355 100.844 69.7355 101.164 69.8075 101.436H71.6195V102.24H69.4475V103.824H71.4275V104.604H69.4475V106.164H71.4275V106.968H69.4475V108.672H71.8955ZM61.4555 103.908L61.2275 103.056C61.3555 103.016 61.4475 102.976 61.5035 102.936C61.5675 102.888 61.6275 102.816 61.6835 102.72C61.8915 102.416 62.1595 101.94 62.4875 101.292C62.8155 100.644 63.0955 100.04 63.3275 99.48L64.1315 99.804C63.9235 100.308 63.6515 100.88 63.3155 101.52C62.9795 102.152 62.7035 102.632 62.4875 102.96L63.7715 102.888C64.0675 102.36 64.3275 101.852 64.5515 101.364L65.3075 101.712C65.0275 102.304 64.6355 103.044 64.1315 103.932C63.6275 104.812 63.2235 105.468 62.9195 105.9C63.2075 105.86 63.5355 105.808 63.9035 105.744C64.2795 105.68 64.5875 105.624 64.8275 105.576L64.8395 106.416L64.4075 106.488L62.4275 106.848C62.2355 106.864 62.0115 106.908 61.7555 106.98L61.5275 106.056C61.6715 106.008 61.7795 105.96 61.8515 105.912C61.9235 105.864 61.9915 105.796 62.0555 105.708C62.3755 105.268 62.7955 104.6 63.3155 103.704C62.5315 103.76 62.0835 103.8 61.9715 103.824C61.8275 103.84 61.6555 103.868 61.4555 103.908ZM66.6155 103.824H68.6195V102.24H66.6155V103.824ZM66.6155 106.164H68.6195V104.604H66.6155V106.164ZM68.6195 106.968H66.6155V108.672H68.6195V106.968ZM65.3075 108.192L65.3435 108.636C64.8955 108.748 64.2515 108.88 63.4115 109.032C62.5715 109.184 61.8435 109.308 61.2275 109.404L61.0835 108.576C61.5955 108.512 62.2955 108.396 63.1835 108.228C64.0715 108.06 64.7675 107.912 65.2715 107.784L65.3075 108.192ZM74.336 103.872V100.116H81.956V103.092H75.236V103.68C75.236 103.912 75.26 104.084 75.308 104.196C75.356 104.3 75.444 104.372 75.572 104.412C75.708 104.452 75.92 104.48 76.208 104.496C77.248 104.528 78.028 104.544 78.548 104.544C79.068 104.544 79.848 104.528 80.888 104.496C81.272 104.48 81.54 104.448 81.692 104.4C81.852 104.352 81.948 104.276 81.98 104.172C82.052 103.964 82.104 103.712 82.136 103.416L83.096 103.872C83.048 104.152 82.972 104.444 82.868 104.748C82.812 104.924 82.664 105.06 82.424 105.156C82.192 105.252 81.812 105.308 81.284 105.324C80.1 105.356 79.212 105.372 78.62 105.372C78.02 105.372 77.128 105.356 75.944 105.324C75.52 105.308 75.192 105.26 74.96 105.18C74.736 105.1 74.576 104.96 74.48 104.76C74.384 104.552 74.336 104.256 74.336 103.872ZM81.032 102.276V100.932H75.236V102.276H81.032ZM83.66 106.572V107.4H81.404V108.78C81.404 109.18 81.352 109.48 81.248 109.68C81.152 109.888 80.98 110.036 80.732 110.124C80.484 110.22 80.108 110.284 79.604 110.316L78.908 110.364L78.584 109.488L79.46 109.44C79.764 109.424 79.988 109.388 80.132 109.332C80.284 109.276 80.384 109.188 80.432 109.068C80.48 108.948 80.504 108.768 80.504 108.528V107.4H75.584C76.432 107.912 77.136 108.4 77.696 108.864L77.3 109.704C76.996 109.416 76.62 109.112 76.172 108.792C75.724 108.464 75.308 108.184 74.924 107.952L75.356 107.4H73.076V106.572H80.504V105.72L81.404 105.756V106.572H83.66ZM85.6085 110.448V100.14H94.7645V110.448H93.9125V109.752H86.4485V110.448H85.6085ZM86.4485 100.932V109.008H93.9125V100.932H86.4485ZM93.7685 105.144L93.4325 105.912C92.0725 105.536 90.9845 105.128 90.1685 104.688C89.2805 105.136 88.1885 105.556 86.8925 105.948L86.5685 105.276C87.6805 104.972 88.6525 104.636 89.4845 104.268C89.0525 103.972 88.6285 103.608 88.2125 103.176C87.8765 103.536 87.5245 103.86 87.1565 104.148L86.7245 103.62C87.1405 103.276 87.5485 102.864 87.9485 102.384C88.3485 101.904 88.6685 101.452 88.9085 101.028L89.5925 101.304C89.4485 101.552 89.2925 101.804 89.1245 102.06H92.8565V102.696C92.2165 103.352 91.5645 103.88 90.9005 104.28C91.6365 104.6 92.5925 104.888 93.7685 105.144ZM90.1685 103.92C90.8085 103.568 91.3565 103.16 91.8125 102.696H88.6445C88.6445 102.696 88.6405 102.7 88.6325 102.708C89.0725 103.18 89.5845 103.584 90.1685 103.92ZM88.5485 105.504C88.9725 105.56 89.5365 105.664 90.2405 105.816C90.9525 105.96 91.5165 106.092 91.9325 106.212L91.8365 106.968C91.4365 106.816 90.8845 106.66 90.1805 106.5C89.4765 106.34 88.9045 106.236 88.4645 106.188L88.5485 105.504ZM87.6605 106.968C88.2525 107.024 89.0485 107.156 90.0485 107.364C91.0485 107.572 91.8365 107.768 92.4125 107.952L92.2805 108.72C91.7285 108.504 90.9605 108.288 89.9765 108.072C89.0005 107.856 88.1965 107.72 87.5645 107.664L87.6605 106.968Z" fill="#6C7D8F"/>
</g>
<g filter="url(#filter1_d_5688_9207)">
<path d="M144 31.09C144 26.0697 148.07 22 153.09 22H249.91C254.93 22 259 26.0697 259 31.09V112.91C259 117.93 254.93 122 249.91 122H153.09C148.07 122 144 117.93 144 112.91V31.09Z" fill="white" shape-rendering="crispEdges"/>
<path d="M173.724 73.15L173.724 64.8622C173.724 62.874 175.336 61.2622 177.324 61.2622L226.026 61.2622C228.014 61.2622 229.626 62.874 229.626 64.8622L229.626 73.15" stroke="#AADFE7" stroke-width="1.82404" stroke-linecap="round"/>
<path d="M200.794 50.65L200.794 73.15" stroke="#AADFE7" stroke-width="1.82404" stroke-linecap="round"/>
<rect width="19.8" height="9.9" rx="3.23985" transform="matrix(-1 0 0 1 210.05 74.95)" fill="#AADFE7"/>
<rect width="19.8" height="9.9" rx="3.23985" transform="matrix(-1 0 0 1 183.95 74.95)" fill="#AADFE7"/>
<rect width="19.8" height="9.9" rx="3.23985" transform="matrix(-1 0 0 1 238.85 74.95)" fill="#AADFE7"/>
<rect x="189.094" y="37.15" width="23.4" height="12.6" rx="3.23985" fill="#63CBD1"/>
<path d="M172.761 102.654L172.533 101.874C172.733 101.802 172.901 101.682 173.037 101.514C173.261 101.25 173.553 100.806 173.913 100.182C174.273 99.55 174.577 98.954 174.825 98.394L175.593 98.73C175.345 99.266 175.049 99.838 174.705 100.446C174.369 101.046 174.085 101.482 173.853 101.754C174.765 101.714 175.309 101.69 175.485 101.682C175.813 101.154 176.061 100.714 176.229 100.362L176.949 100.746C176.261 101.994 175.409 103.294 174.393 104.646C175.425 104.502 176.117 104.398 176.469 104.334L176.481 105.162C176.145 105.218 175.709 105.29 175.173 105.378C174.637 105.458 174.185 105.526 173.817 105.582C173.513 105.622 173.265 105.67 173.073 105.726L172.833 104.886C173.009 104.83 173.141 104.77 173.229 104.706C173.325 104.642 173.421 104.55 173.517 104.43C173.989 103.846 174.469 103.194 174.957 102.474C174.677 102.482 174.241 102.506 173.649 102.546L173.325 102.57C173.173 102.57 172.985 102.598 172.761 102.654ZM182.109 98.814V107.79H183.261V108.618H176.169V107.79H177.321V98.814H182.109ZM181.221 101.766V99.666H178.197V101.766H181.221ZM178.197 104.622H181.221V102.594H178.197V104.622ZM181.221 105.45H178.197V107.79H181.221V105.45ZM176.457 107.118L176.481 107.502C175.497 107.678 174.201 107.882 172.593 108.114L172.377 107.298C173.169 107.21 174.521 107.002 176.433 106.674L176.457 107.118ZM184.537 102.57L184.357 101.742C184.477 101.694 184.561 101.654 184.609 101.622C184.665 101.582 184.729 101.514 184.801 101.418C185.017 101.154 185.301 100.69 185.653 100.026C186.013 99.362 186.313 98.742 186.553 98.166L187.369 98.538C187.145 99.05 186.861 99.61 186.517 100.218C186.181 100.826 185.889 101.302 185.641 101.646C186.145 101.622 186.617 101.59 187.057 101.55C187.465 100.862 187.757 100.338 187.933 99.978L188.665 100.362C188.377 100.93 187.957 101.666 187.405 102.57C186.853 103.474 186.425 104.122 186.121 104.514C186.449 104.466 186.821 104.406 187.237 104.334C187.661 104.262 187.993 104.202 188.233 104.154L188.221 105.09L185.533 105.462C185.277 105.502 185.045 105.554 184.837 105.618L184.645 104.718C184.813 104.662 184.933 104.61 185.005 104.562C185.077 104.514 185.161 104.43 185.257 104.31C185.553 103.926 185.985 103.282 186.553 102.378L185.077 102.486C184.925 102.502 184.745 102.53 184.537 102.57ZM189.145 99.054H194.065V104.394H189.145V99.054ZM189.973 103.542H193.225V99.918H189.973V103.542ZM187.861 108.546C188.309 108.098 188.745 107.55 189.169 106.902C189.601 106.254 189.945 105.642 190.201 105.066L190.993 105.546C190.745 106.09 190.401 106.698 189.961 107.37C189.521 108.042 189.089 108.642 188.665 109.17L187.861 108.546ZM192.877 105.09C193.205 105.53 193.593 106.11 194.041 106.83C194.497 107.55 194.825 108.118 195.025 108.534L194.245 109.086C194.037 108.614 193.721 108.026 193.297 107.322C192.873 106.618 192.489 106.038 192.145 105.582L192.877 105.09ZM188.449 106.95L188.473 107.31C187.977 107.43 187.333 107.566 186.541 107.718C185.757 107.87 185.025 107.998 184.345 108.102L184.237 107.262C184.829 107.182 185.533 107.066 186.349 106.914C187.165 106.754 187.857 106.602 188.425 106.458L188.449 106.95ZM206.766 99.87V100.722H203.79V102.426H206.274V103.266H200.502V102.426H202.89V100.722H200.286V99.87H202.89V98.226L203.79 98.262V99.87H206.766ZM196.434 102.69L196.254 101.85C196.374 101.81 196.458 101.77 196.506 101.73C196.562 101.69 196.622 101.622 196.686 101.526C196.918 101.222 197.21 100.742 197.562 100.086C197.922 99.422 198.222 98.806 198.462 98.238L199.206 98.55C198.982 99.07 198.69 99.658 198.33 100.314C197.978 100.97 197.686 101.458 197.454 101.778C197.494 101.778 197.874 101.758 198.594 101.718L199.002 101.694C199.226 101.302 199.402 100.978 199.53 100.722L200.226 101.046C199.89 101.726 199.518 102.398 199.11 103.062C198.71 103.718 198.346 104.266 198.018 104.706L200.118 104.406L200.142 105.246C199.822 105.286 199.382 105.346 198.822 105.426C198.262 105.506 197.794 105.578 197.418 105.642C197.162 105.666 196.93 105.71 196.722 105.774L196.53 104.91C196.698 104.854 196.818 104.802 196.89 104.754C196.97 104.706 197.054 104.622 197.142 104.502C197.638 103.886 198.098 103.222 198.522 102.51L198.042 102.546C197.65 102.57 197.29 102.594 196.962 102.618C196.77 102.634 196.594 102.658 196.434 102.69ZM201.654 109.062H200.766V104.562H205.938V109.062H205.038V108.27H201.654V109.062ZM205.038 107.466V105.378H201.654V107.466H205.038ZM200.442 107.334L200.454 107.634C199.934 107.738 199.226 107.866 198.33 108.018C197.434 108.17 196.714 108.282 196.17 108.354L196.074 107.514C196.602 107.45 197.322 107.338 198.234 107.178C199.154 107.01 199.878 106.862 200.406 106.734L200.442 107.334ZM218.038 99.846L217.858 107.214C217.85 107.614 217.782 107.93 217.654 108.162C217.526 108.394 217.314 108.562 217.018 108.666C216.73 108.778 216.326 108.846 215.806 108.87L215.05 108.918L214.702 107.994L215.722 107.946C216.074 107.93 216.338 107.89 216.514 107.826C216.698 107.754 216.826 107.642 216.898 107.49C216.97 107.33 217.01 107.098 217.018 106.794C217.026 106.658 217.046 105.946 217.078 104.658C217.118 103.362 217.146 102.394 217.162 101.754L217.186 100.71H213.466C213.114 101.414 212.746 102.038 212.362 102.582L211.63 102.162C212.054 101.61 212.438 100.974 212.782 100.254C213.126 99.534 213.39 98.83 213.574 98.142L214.438 98.298C214.27 98.842 214.078 99.358 213.862 99.846H218.038ZM211.978 104.766C211.842 104.566 211.646 104.326 211.39 104.046C211.134 103.758 210.898 103.514 210.682 103.314V109.146H209.878V103.35C209.686 103.814 209.466 104.27 209.218 104.718C208.97 105.158 208.666 105.654 208.306 106.206L207.67 105.63C208.11 105.038 208.53 104.354 208.93 103.578C209.33 102.802 209.634 102.058 209.842 101.346H208.246V100.482H209.878V98.19L210.682 98.214V100.482H212.038V101.346H210.682V103.014L211.018 102.618C211.218 102.77 211.474 102.994 211.786 103.29C212.106 103.586 212.35 103.83 212.518 104.022L211.978 104.766ZM216.022 106.974C215.982 106.83 215.878 106.502 215.71 105.99C214.606 106.134 213.658 106.25 212.866 106.338C212.706 106.354 212.482 106.402 212.194 106.482L211.918 105.63C212.046 105.582 212.142 105.53 212.206 105.474C212.27 105.41 212.338 105.31 212.41 105.174C212.634 104.774 212.894 104.206 213.19 103.47C213.486 102.734 213.726 102.074 213.91 101.49L214.702 101.766C214.534 102.27 214.294 102.902 213.982 103.662C213.67 104.414 213.406 105.01 213.19 105.45L215.41 105.21C215.09 104.394 214.802 103.762 214.546 103.314L215.23 102.978C215.462 103.386 215.738 103.962 216.058 104.706C216.378 105.442 216.61 106.042 216.754 106.506L216.022 106.974ZM220.515 109.098V98.79H229.671V109.098H228.819V108.402H221.355V109.098H220.515ZM221.355 99.582V107.658H228.819V99.582H221.355ZM228.675 103.794L228.339 104.562C226.979 104.186 225.891 103.778 225.075 103.338C224.187 103.786 223.095 104.206 221.799 104.598L221.475 103.926C222.587 103.622 223.559 103.286 224.391 102.918C223.959 102.622 223.535 102.258 223.119 101.826C222.783 102.186 222.431 102.51 222.063 102.798L221.631 102.27C222.047 101.926 222.455 101.514 222.855 101.034C223.255 100.554 223.575 100.102 223.815 99.678L224.499 99.954C224.355 100.202 224.199 100.454 224.031 100.71H227.763V101.346C227.123 102.002 226.471 102.53 225.807 102.93C226.543 103.25 227.499 103.538 228.675 103.794ZM225.075 102.57C225.715 102.218 226.263 101.81 226.719 101.346H223.551C223.551 101.346 223.547 101.35 223.539 101.358C223.979 101.83 224.491 102.234 225.075 102.57ZM223.455 104.154C223.879 104.21 224.443 104.314 225.147 104.466C225.859 104.61 226.423 104.742 226.839 104.862L226.743 105.618C226.343 105.466 225.791 105.31 225.087 105.15C224.383 104.99 223.811 104.886 223.371 104.838L223.455 104.154ZM222.567 105.618C223.159 105.674 223.955 105.806 224.955 106.014C225.955 106.222 226.743 106.418 227.319 106.602L227.187 107.37C226.635 107.154 225.867 106.938 224.883 106.722C223.907 106.506 223.103 106.37 222.471 106.314L222.567 105.618Z" fill="#6C7D8F"/>
</g>
<g filter="url(#filter2_d_5688_9207)">
<path d="M273 31.09C273 26.0697 277.07 22 282.09 22H378.91C383.93 22 388 26.0697 388 31.09V112.91C388 117.93 383.93 122 378.91 122H282.09C277.07 122 273 117.93 273 112.91V31.09Z" fill="white" shape-rendering="crispEdges"/>
<path d="M318.56 60.8221L365.6 60.8221" stroke="#AADFE7" stroke-width="1.82404" stroke-linecap="round"/>
<path d="M345.327 41.7336L334.24 60.9374" stroke="#AADFE7" stroke-width="1.82404" stroke-linecap="round"/>
<path d="M338.51 80.0259L327.423 60.8221" stroke="#AADFE7" stroke-width="1.82404" stroke-linecap="round"/>
<path d="M361.523 75.0162L353.328 60.8221" stroke="#AADFE7" stroke-width="1.82404" stroke-linecap="round"/>
<rect width="20.7" height="9.9" rx="3.23985" transform="matrix(-1 0 0 1 346.511 75.8202)" fill="#AADFE7"/>
<rect width="20.7" height="9.9" rx="3.23985" transform="matrix(-1 0 0 1 353.328 36.2798)" fill="#AADFE7"/>
<rect width="14.4" height="9.9" rx="3.23985" transform="matrix(-1 0 0 1 366.281 68.3212)" fill="#AADFE7"/>
<rect x="294.719" y="54.6701" width="23.4" height="12.6" rx="3.23985" fill="#63CBD1"/>
<path d="M314.833 102.792C314.569 103.016 314.249 103.26 313.873 103.524L313.261 102.828C314.005 102.332 314.697 101.736 315.337 101.04C315.985 100.344 316.533 99.6362 316.981 98.9162L317.869 99.2882C317.725 99.5442 317.557 99.8122 317.365 100.092H321.481V100.8C321.417 100.864 321.041 101.296 320.353 102.096H322.645V107.232H314.833V102.792ZM316.753 100.884C316.377 101.34 316.001 101.744 315.625 102.096H319.225L319.633 101.64C320.049 101.176 320.269 100.924 320.293 100.884H316.753ZM315.685 102.924V104.244H318.301V102.924H315.685ZM319.177 104.244H321.745V102.924H319.177V104.244ZM318.301 105.024H315.685V106.404H318.301V105.024ZM319.177 105.024V106.404H321.745V105.024H319.177ZM313.525 109.332V108.492H323.953V109.332H313.525ZM334.074 99.3602V102.648H335.466V104.94H334.578V103.344H326.478V104.94H325.614V102.648H327.018V99.3602H334.074ZM333.21 102.648V100.116H327.894V101.016H331.35V102.648H333.21ZM330.522 101.724H327.894V102.648H330.522V101.724ZM327.126 109.932V104.292H333.906V108.54C333.906 108.892 333.862 109.16 333.774 109.344C333.694 109.528 333.542 109.664 333.318 109.752C333.094 109.84 332.754 109.904 332.298 109.944L331.578 110.004L331.302 109.164L332.07 109.116C332.35 109.1 332.558 109.068 332.694 109.02C332.83 108.98 332.926 108.908 332.982 108.804C333.038 108.708 333.066 108.564 333.066 108.372V108.096H327.99V109.932H327.126ZM333.066 105.852V104.988H327.99V105.852H333.066ZM327.99 106.548V107.4H333.066V106.548H327.99ZM337.702 109.968V99.6602H346.858V109.968H346.006V109.272H338.542V109.968H337.702ZM338.542 100.452V108.528H346.006V100.452H338.542ZM345.862 104.664L345.526 105.432C344.166 105.056 343.078 104.648 342.262 104.208C341.374 104.656 340.282 105.076 338.986 105.468L338.662 104.796C339.774 104.492 340.746 104.156 341.578 103.788C341.146 103.492 340.722 103.128 340.306 102.696C339.97 103.056 339.618 103.38 339.25 103.668L338.818 103.14C339.234 102.796 339.642 102.384 340.042 101.904C340.442 101.424 340.762 100.972 341.002 100.548L341.686 100.824C341.542 101.072 341.386 101.324 341.218 101.58H344.95V102.216C344.31 102.872 343.658 103.4 342.994 103.8C343.73 104.12 344.686 104.408 345.862 104.664ZM342.262 103.44C342.902 103.088 343.45 102.68 343.906 102.216H340.738C340.738 102.216 340.734 102.22 340.726 102.228C341.166 102.7 341.678 103.104 342.262 103.44ZM340.642 105.024C341.066 105.08 341.63 105.184 342.334 105.336C343.046 105.48 343.61 105.612 344.026 105.732L343.93 106.488C343.53 106.336 342.978 106.18 342.274 106.02C341.57 105.86 340.998 105.756 340.558 105.708L340.642 105.024ZM339.754 106.488C340.346 106.544 341.142 106.676 342.142 106.884C343.142 107.092 343.93 107.288 344.506 107.472L344.374 108.24C343.822 108.024 343.054 107.808 342.07 107.592C341.094 107.376 340.29 107.24 339.658 107.184L339.754 106.488Z" fill="#6C7D8F"/>
</g>
<g filter="url(#filter3_d_5688_9207)">
<path d="M15 149.09C15 144.07 19.0697 140 24.09 140H120.91C125.93 140 130 144.07 130 149.09V230.91C130 235.93 125.93 240 120.91 240H24.09C19.0697 240 15 235.93 15 230.91V149.09Z" fill="white" shape-rendering="crispEdges"/>
<path d="M71.8027 174.008L71.8027 158.008" stroke="#AADFE7" stroke-width="1.82404" stroke-linecap="round"/>
<path d="M71.8027 165.004H79.8027" stroke="#AADFE7" stroke-width="1.82404" stroke-linecap="round"/>
<path d="M71.8027 158.004H79.8027" stroke="#AADFE7" stroke-width="1.82404" stroke-linecap="round"/>
<path d="M98.9279 199.996H106.928" stroke="#AADFE7" stroke-width="1.82404" stroke-linecap="round"/>
<path d="M98.9279 192.996H106.928" stroke="#AADFE7" stroke-width="1.82404" stroke-linecap="round"/>
<path d="M98.9279 199.51L98.9279 183.51" stroke="#AADFE7" stroke-width="1.82404" stroke-linecap="round"/>
<path d="M53.6469 178.891H112.647" stroke="#AADFE7" stroke-width="1.82404" stroke-linecap="round"/>
<rect width="20.7" height="9.9" rx="3.23985" transform="matrix(1 0 0 -1 87.8027 184.037)" fill="#AADFE7"/>
<rect width="20.7" height="9.9" rx="3.23985" transform="matrix(1 0 0 -1 61.4515 183.644)" fill="#AADFE7"/>
<rect x="32.3531" y="172.782" width="23.4" height="12.6" rx="3.23985" fill="#63CBD1"/>
<path d="M66.0733 215.736V216.612H64.5133V222.408C64.5133 222.816 64.4613 223.124 64.3573 223.332C64.2533 223.548 64.0693 223.704 63.8053 223.8C63.5413 223.904 63.1453 223.976 62.6173 224.016L61.9573 224.064L61.6453 223.14L62.4853 223.092C62.8213 223.068 63.0613 223.032 63.2053 222.984C63.3573 222.928 63.4533 222.844 63.4933 222.732C63.5333 222.612 63.5533 222.42 63.5533 222.156V216.612H60.0493V215.736H63.5533V213.372L64.5133 213.408V215.736H66.0733ZM59.5693 223.128H56.0053V214.356H59.5693V223.128ZM58.7173 218.22V215.268H56.8573V218.22H58.7173ZM61.9573 220.932C61.8053 220.516 61.5613 219.988 61.2253 219.348C60.8973 218.708 60.6093 218.204 60.3613 217.836L61.0933 217.428C61.3333 217.772 61.6213 218.26 61.9573 218.892C62.3013 219.524 62.5533 220.036 62.7133 220.428L61.9573 220.932ZM56.8573 219.084V222.216H58.7173V219.084H56.8573ZM68.6578 213.36C68.8978 213.552 69.2058 213.84 69.5818 214.224C69.9578 214.6 70.2498 214.912 70.4578 215.16L69.8698 215.928C69.6778 215.64 69.3978 215.296 69.0298 214.896C68.6618 214.496 68.3498 214.192 68.0938 213.984L68.6578 213.36ZM70.8418 214.14H77.0818V222.396C77.0818 222.828 77.0298 223.148 76.9258 223.356C76.8298 223.572 76.6618 223.728 76.4218 223.824C76.1818 223.92 75.8058 223.992 75.2938 224.04L74.6818 224.1L74.3818 223.2L75.1378 223.152C75.4498 223.128 75.6738 223.088 75.8098 223.032C75.9458 222.984 76.0378 222.9 76.0858 222.78C76.1338 222.652 76.1578 222.444 76.1578 222.156V215.028H70.8418V214.14ZM68.7898 224.04H67.8898V215.544L68.7898 215.58V224.04ZM70.2538 216.54H74.6818V222.276H70.2538V216.54ZM73.8418 218.988V217.38H71.1058V218.988H73.8418ZM71.1058 219.84V221.412H73.8418V219.84H71.1058ZM83.1943 221.016L83.2183 221.436C82.7303 221.532 82.3143 221.608 81.9703 221.664V224.208H81.1903V221.808C80.1183 221.976 79.3463 222.092 78.8743 222.156L78.7183 221.34C79.2543 221.284 80.0783 221.164 81.1903 220.98V219.264H79.3783V218.4C79.6583 217.664 79.9383 216.768 80.2183 215.712H79.1263V214.872H80.4463C80.6063 214.248 80.7343 213.7 80.8303 213.228L81.5742 213.372C81.5103 213.7 81.3983 214.2 81.2383 214.872H83.1943V215.712H81.0343C80.7463 216.848 80.4823 217.744 80.2423 218.4H81.1903V216.264L81.9703 216.3V218.4H83.1463V219.264H81.9703V220.836L83.1703 220.608L83.1943 221.016ZM86.6143 213.372V215.328H88.9303V224.16H88.1743V223.308H84.2743V224.16H83.5063V215.328H85.7983V213.336L86.6143 213.372ZM85.7983 218.88V216.204H84.2743V218.88H85.7983ZM88.1743 218.88V216.204H86.6143V218.88H88.1743ZM85.7983 219.732H84.2743V222.468H85.7983V219.732ZM86.6143 219.732V222.468H88.1743V219.732H86.6143Z" fill="#6C7D8F"/>
</g>
<g filter="url(#filter4_d_5688_9207)">
<path d="M144 149.09C144 144.07 148.07 140 153.09 140H249.91C254.93 140 259 144.07 259 149.09V230.91C259 235.93 254.93 240 249.91 240H153.09C148.07 240 144 235.93 144 230.91V149.09Z" fill="white" shape-rendering="crispEdges"/>
<path d="M188.261 173.694L201.214 173.694" stroke="#AADFE7" stroke-width="1.82404" stroke-linecap="round"/>
<path d="M187.579 196.1L201.214 196.1" stroke="#AADFE7" stroke-width="1.82404" stroke-linecap="round"/>
<path d="M202.5 183.772L216.135 183.772" stroke="#AADFE7" stroke-width="1.82404" stroke-linecap="round"/>
<path d="M201.5 164L201.5 206" stroke="#AADFE7" stroke-width="1.82404" stroke-linecap="round"/>
<rect width="20.7" height="9.9" rx="3.23985" transform="matrix(-1 0 0 1 191.093 190.7)" fill="#AADFE7"/>
<rect width="20.7" height="9.9" rx="3.23985" transform="matrix(-1 0 0 1 191.093 169.1)" fill="#AADFE7"/>
<rect width="20.7" height="9.9" rx="3.23985" transform="matrix(-1 0 0 1 232.607 179)" fill="#AADFE7"/>
<rect x="189.608" y="152" width="23.4" height="12.6" rx="3.23985" fill="#63CBD1"/>
<path d="M187.621 226.108C187.341 225.532 187.025 225 186.673 224.512V230.2H185.857V224.692C185.553 225.468 185.125 226.268 184.573 227.092L183.913 226.624C184.905 225.208 185.553 223.836 185.857 222.508V222.496H184.525V221.692H185.857V219.4L186.673 219.436V221.692H187.765V222.496H186.673V224.008L186.985 223.792C187.433 224.352 187.841 224.956 188.209 225.604L187.621 226.108ZM195.121 221.776V222.592H193.981V228.784C193.981 229.192 193.893 229.484 193.717 229.66C193.541 229.844 193.213 229.956 192.733 229.996L191.929 230.068L191.653 229.216L192.553 229.132C192.745 229.116 192.881 229.088 192.961 229.048C193.041 229.008 193.093 228.944 193.117 228.856C193.141 228.768 193.153 228.624 193.153 228.424V222.592H191.257V221.776H193.153V219.436L193.981 219.472V221.776H195.121ZM190.885 221.392C190.781 222.232 190.661 222.964 190.525 223.588C190.397 224.204 190.237 224.78 190.045 225.316C190.597 226.428 191.049 227.368 191.401 228.136L190.729 228.592C190.465 227.952 190.109 227.16 189.661 226.216C189.213 227.144 188.533 228.172 187.621 229.3L186.937 228.832C187.465 228.216 187.909 227.632 188.269 227.08C188.637 226.52 188.949 225.924 189.205 225.292C188.845 224.588 188.405 223.784 187.885 222.88L188.521 222.532C188.785 222.98 189.125 223.584 189.541 224.344C189.781 223.536 189.969 222.552 190.105 221.392H187.945V220.576H190.885V221.392ZM192.049 226.9C191.641 225.404 191.273 224.376 190.945 223.816L191.617 223.552C191.857 224.032 192.065 224.484 192.241 224.908C192.425 225.324 192.609 225.84 192.793 226.456L192.049 226.9ZM206.922 229.42L206.226 230.14C205.506 229.532 204.878 228.848 204.342 228.088C203.806 227.328 203.394 226.524 203.106 225.676C202.626 227.404 201.666 228.904 200.226 230.176L199.602 229.432C200.306 228.8 200.866 228.184 201.282 227.584C201.698 226.976 201.998 226.348 202.182 225.7C202.374 225.044 202.49 224.3 202.53 223.468H200.082V222.628H202.554V219.34L203.478 219.376V222.616V222.628H206.622V223.468H203.454L203.442 223.624C203.722 225.808 204.882 227.74 206.922 229.42ZM198.702 219.364L199.59 219.4V230.164H198.702V226.036C198.406 226.284 198.038 226.576 197.598 226.912C197.158 227.248 196.738 227.552 196.338 227.824L195.846 227.02C196.27 226.748 196.746 226.408 197.274 226C197.81 225.584 198.286 225.2 198.702 224.848V219.364ZM205.614 222.328C205.414 221.976 205.158 221.604 204.846 221.212C204.542 220.82 204.27 220.508 204.03 220.276L204.642 219.736C204.866 219.944 205.146 220.256 205.482 220.672C205.826 221.088 206.07 221.42 206.214 221.668L205.614 222.328ZM197.742 224.368C197.59 223.88 197.378 223.332 197.106 222.724C196.842 222.116 196.59 221.584 196.35 221.128L197.106 220.768C197.37 221.256 197.63 221.796 197.886 222.388C198.142 222.972 198.35 223.508 198.51 223.996L197.742 224.368ZM208.702 230.248V219.94H217.858V230.248H217.006V229.552H209.542V230.248H208.702ZM209.542 220.732V228.808H217.006V220.732H209.542ZM216.862 224.944L216.526 225.712C215.166 225.336 214.078 224.928 213.262 224.488C212.374 224.936 211.282 225.356 209.986 225.748L209.662 225.076C210.774 224.772 211.746 224.436 212.578 224.068C212.146 223.772 211.722 223.408 211.306 222.976C210.97 223.336 210.618 223.66 210.25 223.948L209.818 223.42C210.234 223.076 210.642 222.664 211.042 222.184C211.442 221.704 211.762 221.252 212.002 220.828L212.686 221.104C212.542 221.352 212.386 221.604 212.218 221.86H215.95V222.496C215.31 223.152 214.658 223.68 213.994 224.08C214.73 224.4 215.686 224.688 216.862 224.944ZM213.262 223.72C213.902 223.368 214.45 222.96 214.906 222.496H211.738C211.738 222.496 211.734 222.5 211.726 222.508C212.166 222.98 212.678 223.384 213.262 223.72ZM211.642 225.304C212.066 225.36 212.63 225.464 213.334 225.616C214.046 225.76 214.61 225.892 215.026 226.012L214.93 226.768C214.53 226.616 213.978 226.46 213.274 226.3C212.57 226.14 211.998 226.036 211.558 225.988L211.642 225.304ZM210.754 226.768C211.346 226.824 212.142 226.956 213.142 227.164C214.142 227.372 214.93 227.568 215.506 227.752L215.374 228.52C214.822 228.304 214.054 228.088 213.07 227.872C212.094 227.656 211.29 227.52 210.658 227.464L210.754 226.768Z" fill="#6C7D8F"/>
</g>
<g filter="url(#filter5_d_5688_9207)">
<path d="M273 149.09C273 144.07 277.07 140 282.09 140H378.91C383.93 140 388 144.07 388 149.09V230.91C388 235.93 383.93 240 378.91 240H282.09C277.07 240 273 235.93 273 230.91V149.09Z" fill="white" shape-rendering="crispEdges"/>
<rect x="298.139" y="173.757" width="23.4" height="12.6" rx="3.23985" fill="#63CBD1"/>
<rect width="20.4519" height="9.54424" rx="3.23985" transform="matrix(-1 0 0 1 362.861 152.807)" fill="#AADFE7"/>
<rect width="20.4519" height="9.54424" rx="3.23985" transform="matrix(-1 0 0 1 362.691 175.557)" fill="#AADFE7"/>
<rect width="20.4519" height="9.54424" rx="3.23985" transform="matrix(-1 0 0 1 362.691 195.649)" fill="#AADFE7"/>
<path d="M336.2 158.207V158.207C333.747 158.207 331.759 160.195 331.759 162.648V175.082C331.759 177.535 329.771 179.523 327.318 179.523V179.523" stroke="#AADFE7" stroke-width="1.8" stroke-linecap="round"/>
<path d="M336.2 200.839V200.839C333.747 200.839 331.759 198.851 331.759 196.398V183.964C331.759 181.511 329.771 179.523 327.318 179.523V179.523" stroke="#AADFE7" stroke-width="1.8" stroke-linecap="round"/>
<path d="M317.113 224.005L317.173 224.401C316.877 224.521 316.425 224.669 315.817 224.845V227.989C315.817 228.317 315.773 228.565 315.685 228.733C315.605 228.901 315.469 229.021 315.277 229.093C315.085 229.165 314.801 229.213 314.425 229.237L313.897 229.285L313.621 228.409L314.221 228.361C314.525 228.337 314.721 228.281 314.809 228.193C314.905 228.113 314.953 227.949 314.953 227.701V225.085C314.377 225.253 313.825 225.389 313.297 225.493L313.177 224.581C313.545 224.509 314.137 224.365 314.953 224.149V221.665H313.477V220.813H314.953V218.557L315.817 218.593V220.813H317.053V221.665H315.817V223.909C316.217 223.789 316.625 223.657 317.041 223.513L317.113 224.005ZM323.941 222.949H320.761V224.713H323.029V229.417H322.129V228.757H318.517V229.417H317.593V224.713H319.849V222.949H316.921V222.085H319.849V220.309C319.089 220.373 318.221 220.433 317.245 220.489L317.089 219.697C318.145 219.633 319.253 219.545 320.413 219.433C321.573 219.313 322.541 219.185 323.317 219.049L323.473 219.901C322.801 220.005 321.897 220.113 320.761 220.225V222.085H323.941V222.949ZM318.517 227.953H322.129V225.577H318.517V227.953ZM326.826 219.145H334.062V222.229H326.826V219.145ZM327.738 221.461H333.162V219.913H327.738V221.461ZM335.73 224.089H328.398L328.158 225.337H333.918C333.83 226.545 333.774 227.265 333.75 227.497C333.702 227.977 333.606 228.329 333.462 228.553C333.318 228.785 333.066 228.949 332.706 229.045C332.354 229.149 331.806 229.221 331.062 229.261L330.018 229.321L329.73 228.409L331.026 228.361C331.538 228.337 331.906 228.297 332.13 228.241C332.354 228.185 332.51 228.089 332.598 227.953C332.686 227.817 332.742 227.597 332.766 227.293C332.838 226.789 332.878 226.405 332.886 226.141H326.982L327.39 224.089H325.182V223.297H335.73V224.089ZM337.702 229.441V219.133H346.858V229.441H346.006V228.745H338.542V229.441H337.702ZM338.542 219.925V228.001H346.006V219.925H338.542ZM345.862 224.137L345.526 224.905C344.166 224.529 343.078 224.121 342.262 223.681C341.374 224.129 340.282 224.549 338.986 224.941L338.662 224.269C339.774 223.965 340.746 223.629 341.578 223.261C341.146 222.965 340.722 222.601 340.306 222.169C339.97 222.529 339.618 222.853 339.25 223.141L338.818 222.613C339.234 222.269 339.642 221.857 340.042 221.377C340.442 220.897 340.762 220.445 341.002 220.021L341.686 220.297C341.542 220.545 341.386 220.797 341.218 221.053H344.95V221.689C344.31 222.345 343.658 222.873 342.994 223.273C343.73 223.593 344.686 223.881 345.862 224.137ZM342.262 222.913C342.902 222.561 343.45 222.153 343.906 221.689H340.738C340.738 221.689 340.734 221.693 340.726 221.701C341.166 222.173 341.678 222.577 342.262 222.913ZM340.642 224.497C341.066 224.553 341.63 224.657 342.334 224.809C343.046 224.953 343.61 225.085 344.026 225.205L343.93 225.961C343.53 225.809 342.978 225.653 342.274 225.493C341.57 225.333 340.998 225.229 340.558 225.181L340.642 224.497ZM339.754 225.961C340.346 226.017 341.142 226.149 342.142 226.357C343.142 226.565 343.93 226.761 344.506 226.945L344.374 227.713C343.822 227.497 343.054 227.281 342.07 227.065C341.094 226.849 340.29 226.713 339.658 226.657L339.754 225.961Z" fill="#6C7D8F"/>
</g>
<defs>
<filter id="filter0_d_5688_9207" x="2.87997" y="14.425" width="139.24" height="124.24" filterUnits="userSpaceOnUse" color-interpolation-filters="sRGB">
<feFlood flood-opacity="0" result="BackgroundImageFix"/>
<feColorMatrix in="SourceAlpha" type="matrix" values="0 0 0 0 0 0 0 0 0 0 0 0 0 0 0 0 0 0 127 0" result="hardAlpha"/>
<feOffset dy="4.54501"/>
<feGaussianBlur stdDeviation="6.06001"/>
<feComposite in2="hardAlpha" operator="out"/>
<feColorMatrix type="matrix" values="0 0 0 0 0.220898 0 0 0 0 0.485368 0 0 0 0 0.500626 0 0 0 0.1 0"/>
<feBlend mode="normal" in2="BackgroundImageFix" result="effect1_dropShadow_5688_9207"/>
<feBlend mode="normal" in="SourceGraphic" in2="effect1_dropShadow_5688_9207" result="shape"/>
</filter>
<filter id="filter1_d_5688_9207" x="131.88" y="14.425" width="139.24" height="124.24" filterUnits="userSpaceOnUse" color-interpolation-filters="sRGB">
<feFlood flood-opacity="0" result="BackgroundImageFix"/>
<feColorMatrix in="SourceAlpha" type="matrix" values="0 0 0 0 0 0 0 0 0 0 0 0 0 0 0 0 0 0 127 0" result="hardAlpha"/>
<feOffset dy="4.54501"/>
<feGaussianBlur stdDeviation="6.06001"/>
<feComposite in2="hardAlpha" operator="out"/>
<feColorMatrix type="matrix" values="0 0 0 0 0.220898 0 0 0 0 0.485368 0 0 0 0 0.500626 0 0 0 0.1 0"/>
<feBlend mode="normal" in2="BackgroundImageFix" result="effect1_dropShadow_5688_9207"/>
<feBlend mode="normal" in="SourceGraphic" in2="effect1_dropShadow_5688_9207" result="shape"/>
</filter>
<filter id="filter2_d_5688_9207" x="260.88" y="14.425" width="139.24" height="124.24" filterUnits="userSpaceOnUse" color-interpolation-filters="sRGB">
<feFlood flood-opacity="0" result="BackgroundImageFix"/>
<feColorMatrix in="SourceAlpha" type="matrix" values="0 0 0 0 0 0 0 0 0 0 0 0 0 0 0 0 0 0 127 0" result="hardAlpha"/>
<feOffset dy="4.54501"/>
<feGaussianBlur stdDeviation="6.06001"/>
<feComposite in2="hardAlpha" operator="out"/>
<feColorMatrix type="matrix" values="0 0 0 0 0.220898 0 0 0 0 0.485368 0 0 0 0 0.500626 0 0 0 0.1 0"/>
<feBlend mode="normal" in2="BackgroundImageFix" result="effect1_dropShadow_5688_9207"/>
<feBlend mode="normal" in="SourceGraphic" in2="effect1_dropShadow_5688_9207" result="shape"/>
</filter>
<filter id="filter3_d_5688_9207" x="2.87997" y="132.425" width="139.24" height="124.24" filterUnits="userSpaceOnUse" color-interpolation-filters="sRGB">
<feFlood flood-opacity="0" result="BackgroundImageFix"/>
<feColorMatrix in="SourceAlpha" type="matrix" values="0 0 0 0 0 0 0 0 0 0 0 0 0 0 0 0 0 0 127 0" result="hardAlpha"/>
<feOffset dy="4.54501"/>
<feGaussianBlur stdDeviation="6.06001"/>
<feComposite in2="hardAlpha" operator="out"/>
<feColorMatrix type="matrix" values="0 0 0 0 0.220898 0 0 0 0 0.485368 0 0 0 0 0.500626 0 0 0 0.1 0"/>
<feBlend mode="normal" in2="BackgroundImageFix" result="effect1_dropShadow_5688_9207"/>
<feBlend mode="normal" in="SourceGraphic" in2="effect1_dropShadow_5688_9207" result="shape"/>
</filter>
<filter id="filter4_d_5688_9207" x="131.88" y="132.425" width="139.24" height="124.24" filterUnits="userSpaceOnUse" color-interpolation-filters="sRGB">
<feFlood flood-opacity="0" result="BackgroundImageFix"/>
<feColorMatrix in="SourceAlpha" type="matrix" values="0 0 0 0 0 0 0 0 0 0 0 0 0 0 0 0 0 0 127 0" result="hardAlpha"/>
<feOffset dy="4.54501"/>
<feGaussianBlur stdDeviation="6.06001"/>
<feComposite in2="hardAlpha" operator="out"/>
<feColorMatrix type="matrix" values="0 0 0 0 0.220898 0 0 0 0 0.485368 0 0 0 0 0.500626 0 0 0 0.1 0"/>
<feBlend mode="normal" in2="BackgroundImageFix" result="effect1_dropShadow_5688_9207"/>
<feBlend mode="normal" in="SourceGraphic" in2="effect1_dropShadow_5688_9207" result="shape"/>
</filter>
<filter id="filter5_d_5688_9207" x="260.88" y="132.425" width="139.24" height="124.24" filterUnits="userSpaceOnUse" color-interpolation-filters="sRGB">
<feFlood flood-opacity="0" result="BackgroundImageFix"/>
<feColorMatrix in="SourceAlpha" type="matrix" values="0 0 0 0 0 0 0 0 0 0 0 0 0 0 0 0 0 0 127 0" result="hardAlpha"/>
<feOffset dy="4.54501"/>
<feGaussianBlur stdDeviation="6.06001"/>
<feComposite in2="hardAlpha" operator="out"/>
<feColorMatrix type="matrix" values="0 0 0 0 0.220898 0 0 0 0 0.485368 0 0 0 0 0.500626 0 0 0 0.1 0"/>
<feBlend mode="normal" in2="BackgroundImageFix" result="effect1_dropShadow_5688_9207"/>
<feBlend mode="normal" in="SourceGraphic" in2="effect1_dropShadow_5688_9207" result="shape"/>
</filter>
</defs>
</svg>
