<svg width="24" height="16" viewBox="0 0 24 16" fill="none" xmlns="http://www.w3.org/2000/svg">
<path fill-rule="evenodd" clip-rule="evenodd" d="M17.8117 8.928C18.2837 8.016 18.6357 7.116 18.8677 6.228H19.1197V10.536C18.6637 10.528 18.2757 10.516 17.9557 10.5C17.6357 10.484 17.3397 10.456 17.0677 10.416V11.22C17.3317 11.18 17.6237 11.152 17.9437 11.136C18.2717 11.12 18.6637 11.108 19.1197 11.1C19.1197 11.516 19.1077 11.976 19.0837 12.48C19.0677 12.984 19.0437 13.452 19.0117 13.884H19.9357C19.8957 13.452 19.8637 12.984 19.8397 12.48C19.8237 11.976 19.8157 11.516 19.8157 11.1C20.3437 11.1 20.7837 11.112 21.1357 11.136C21.4957 11.152 21.8157 11.18 22.0957 11.22V10.416C21.8157 10.456 21.4957 10.488 21.1357 10.512C20.7757 10.528 20.3357 10.536 19.8157 10.536V6.228H20.0797C20.2077 6.692 20.3557 7.148 20.5237 7.596C20.6997 8.036 20.9077 8.472 21.1477 8.904C21.3957 9.336 21.6877 9.772 22.0237 10.212C22.3597 10.644 22.7597 11.084 23.2237 11.532C23.4317 11.228 23.6677 11.028 23.9317 10.932C23.5397 10.636 23.1757 10.308 22.8397 9.948C22.5117 9.588 22.2117 9.208 21.9397 8.808C21.6677 8.4 21.4237 7.98 21.2077 7.548C20.9917 7.108 20.7997 6.668 20.6317 6.228C21.2557 6.228 21.7797 6.236 22.2037 6.252C22.6357 6.26 23.0197 6.272 23.3557 6.288V5.544C23.1557 5.56 22.9477 5.576 22.7317 5.592C22.5237 5.6 22.2837 5.608 22.0117 5.616C21.7397 5.616 21.4277 5.62 21.0757 5.628H19.8157V4.884C19.8157 4.428 19.8277 4.092 19.8517 3.876C19.8757 3.652 19.9197 3.508 19.9837 3.444C20.1037 3.332 20.1557 3.248 20.1397 3.192C20.1237 3.136 20.0437 3.112 19.8997 3.12C19.7317 3.128 19.5837 3.124 19.4557 3.108C19.3357 3.084 19.1957 3.048 19.0357 3C19.0517 3.112 19.0637 3.228 19.0717 3.348C19.0877 3.468 19.0957 3.624 19.0957 3.816C19.1037 4.008 19.1077 4.248 19.1077 4.536C19.1157 4.824 19.1197 5.188 19.1197 5.628C18.3997 5.628 17.7477 5.62 17.1637 5.604C16.5797 5.588 16.0837 5.568 15.6757 5.544V6.288C15.9957 6.272 16.3757 6.26 16.8157 6.252C17.2637 6.236 17.7557 6.228 18.2917 6.228C18.1317 6.7 17.9317 7.184 17.6917 7.68C17.4597 8.168 17.2037 8.636 16.9237 9.084C16.6437 9.532 16.3437 9.94 16.0237 10.308C15.7117 10.676 15.3957 10.968 15.0757 11.184C15.2357 11.248 15.3797 11.32 15.5077 11.4C15.6357 11.472 15.7477 11.564 15.8437 11.676C16.6917 10.756 17.3477 9.84 17.8117 8.928ZM13.6357 7.776C13.8277 7.472 14.0197 7.152 14.2117 6.816V11.304C14.2117 11.736 14.1997 12.176 14.1757 12.624C14.1517 13.064 14.1197 13.456 14.0797 13.8H14.9317V5.508C15.0197 5.348 15.0997 5.192 15.1717 5.04C15.2437 4.888 15.3117 4.744 15.3757 4.608C15.6317 4.032 15.8397 3.7 15.9997 3.612C16.2717 3.46 16.2477 3.356 15.9277 3.3C15.8237 3.284 15.6997 3.252 15.5557 3.204C15.4197 3.148 15.2877 3.08 15.1597 3C15.0797 3.36 14.9717 3.732 14.8357 4.116C14.7077 4.5 14.5117 4.936 14.2477 5.424C13.9197 6.032 13.5997 6.564 13.2877 7.02C12.9757 7.476 12.7037 7.808 12.4717 8.016C12.6077 8.08 12.7237 8.156 12.8197 8.244C12.9157 8.324 13.0117 8.432 13.1077 8.568C13.2677 8.336 13.4437 8.072 13.6357 7.776ZM4.156 5.76016C4.34 6.02416 4.532 6.36016 4.732 6.76816L5.404 6.45616C5.196 6.08816 4.992 5.76016 4.792 5.47216C4.6 5.18416 4.388 4.90816 4.156 4.64416L3.592 5.02816C3.792 5.24416 3.98 5.48816 4.156 5.76016ZM8.704 5.24416C8.784 5.16416 8.86 5.09216 8.932 5.02816L8.284 4.62016C8.108 4.94816 7.908 5.26816 7.684 5.58016C7.468 5.88416 7.224 6.17616 6.952 6.45616L7.552 6.81616C7.744 6.52016 7.912 6.27216 8.056 6.07216C8.2 5.87216 8.324 5.70416 8.428 5.56816C8.54 5.43216 8.632 5.32416 8.704 5.24416ZM2.86 12.4202C2.988 12.2362 3.092 12.0762 3.172 11.9402L2.536 11.5322C2.424 11.7562 2.316 11.9562 2.212 12.1322C2.116 12.3002 2.012 12.4602 1.9 12.6122C1.788 12.7642 1.66 12.9162 1.516 13.0682C1.372 13.2202 1.2 13.3842 1 13.5602L1.648 13.9802C1.768 13.8602 1.9 13.7122 2.044 13.5362C2.188 13.3602 2.328 13.1762 2.464 12.9842C2.608 12.7922 2.74 12.6042 2.86 12.4202ZM10.444 13.3202C10.54 13.4642 10.64 13.6242 10.744 13.8002L11.404 13.2962C11.196 13.0162 10.956 12.7282 10.684 12.4322C10.42 12.1282 10.108 11.8002 9.748 11.4482L9.232 11.8682C9.432 12.0842 9.604 12.2762 9.748 12.4442C9.9 12.6042 10.032 12.7562 10.144 12.9002C10.256 13.0442 10.356 13.1842 10.444 13.3202ZM4.816 12.7682C4.96 13.0882 5.076 13.4042 5.164 13.7162L5.908 13.4402C5.772 13.1202 5.612 12.7962 5.428 12.4682C5.244 12.1322 5.072 11.8482 4.912 11.6162L4.3 11.9162C4.508 12.1722 4.68 12.4562 4.816 12.7682ZM7.636 13.0922C7.7 13.2282 7.772 13.3842 7.852 13.5602L8.524 13.2362C8.388 12.9802 8.224 12.7082 8.032 12.4202C7.84 12.1322 7.636 11.8482 7.42 11.5682L6.832 11.9282C6.968 12.0882 7.084 12.2322 7.18 12.3602C7.276 12.4802 7.36 12.6002 7.432 12.7202C7.504 12.8402 7.572 12.9642 7.636 13.0922ZM2.956 4.30816H5.836V7.09216H2.956V4.30816ZM9.52 7.09216H6.556V4.30816H9.52V7.09216ZM9.196 10.5722C8.468 10.5882 7.588 10.5962 6.556 10.5962V9.33616C7.372 9.33616 8.072 9.34416 8.656 9.36016C9.24 9.36816 9.768 9.38416 10.24 9.40816V8.71216C9.768 8.73616 9.24 8.75616 8.656 8.77216C8.072 8.78016 7.372 8.78416 6.556 8.78416V7.65616H7.744C8.104 7.65616 8.432 7.66016 8.728 7.66816C9.024 7.67616 9.3 7.68416 9.556 7.69216C9.812 7.70016 10.056 7.70816 10.288 7.71616C10.272 7.56416 10.26 7.41616 10.252 7.27216L10.228 6.84016C10.228 6.68816 10.224 6.52416 10.216 6.34816V5.73616C10.216 5.28816 10.22 4.90816 10.228 4.59616C10.244 4.28416 10.264 3.97216 10.288 3.66016C10.04 3.67616 9.78 3.68816 9.508 3.69616C9.236 3.70416 8.936 3.71216 8.608 3.72016C8.288 3.72016 7.932 3.72416 7.54 3.73216H6.232H4.912C4.528 3.72416 4.172 3.72016 3.844 3.72016C3.524 3.71216 3.228 3.70416 2.956 3.69616C2.684 3.68816 2.424 3.67616 2.176 3.66016C2.208 3.97216 2.228 4.28416 2.236 4.59616C2.252 4.90016 2.26 5.28016 2.26 5.73616C2.26 5.96016 2.256 6.16016 2.248 6.33616C2.248 6.51216 2.244 6.68016 2.236 6.84016C2.236 6.99216 2.228 7.14016 2.212 7.28416C2.204 7.42816 2.192 7.57616 2.176 7.72816C2.408 7.72016 2.648 7.71216 2.896 7.70416C3.144 7.68816 3.416 7.68016 3.712 7.68016C4.008 7.67216 4.328 7.66816 4.672 7.66816C5.024 7.66016 5.412 7.65616 5.836 7.65616V8.78416C5.02 8.78416 4.324 8.78016 3.748 8.77216C3.172 8.75616 2.648 8.73616 2.176 8.71216V9.40816C2.648 9.38416 3.172 9.36816 3.748 9.36016C4.332 9.34416 5.028 9.33616 5.836 9.33616V10.5962H4.348C3.9 10.5882 3.484 10.5802 3.1 10.5722C2.716 10.5642 2.356 10.5562 2.02 10.5482C1.692 10.5322 1.376 10.5162 1.072 10.5002V11.2562C1.392 11.2402 1.724 11.2282 2.068 11.2202C2.412 11.2042 2.788 11.1922 3.196 11.1842C3.604 11.1762 4.044 11.1722 4.516 11.1722C4.996 11.1642 5.528 11.1602 6.112 11.1602C6.688 11.1602 7.216 11.1642 7.696 11.1722C8.184 11.1722 8.632 11.1762 9.04 11.1842C9.448 11.1922 9.824 11.2042 10.168 11.2202C10.52 11.2282 10.856 11.2402 11.176 11.2562V10.5002C10.584 10.5322 9.924 10.5562 9.196 10.5722Z" fill="black"/>
</svg>
