<svg width="25" height="16" viewBox="0 0 25 16" fill="none" xmlns="http://www.w3.org/2000/svg">
<path fill-rule="evenodd" clip-rule="evenodd" d="M21.7715 8.61719C21.4404 8.26562 21.1064 7.84375 20.7695 7.35547C20.5527 7.03906 20.335 6.69531 20.1162 6.32422C21.084 6.20312 21.7559 6.12891 22.1318 6.09766C22.5156 6.0625 22.708 5.99609 22.708 5.89062C22.708 5.78125 22.5879 5.67969 22.3477 5.59375C22.1162 5.49609 21.8916 5.44922 21.6758 5.44922C21.46 5.44922 21.124 5.51562 20.668 5.65234C20.4355 5.73047 20.1602 5.80469 19.8398 5.86719C19.8721 5.5 19.9199 5.10156 19.9844 4.66797C20.0479 4.22656 20.0996 3.95312 20.1396 3.83984C20.1875 3.71875 20.2119 3.60938 20.2119 3.50391C20.2119 3.44141 20.1719 3.38281 20.0908 3.32031C20.0215 3.26953 19.9219 3.21875 19.792 3.16797C19.5195 3.05469 19.3359 3 19.2402 3C19.1436 3 19.0957 3.03906 19.0957 3.12109C19.0957 3.15625 19.1035 3.19922 19.1191 3.24219C19.1328 3.28125 19.1533 3.32031 19.1797 3.35938C19.2441 3.44141 19.2959 3.71875 19.3359 4.19922C19.376 4.67188 19.4004 5.26172 19.4082 5.96484L18.3516 6.15625L17.7598 6.25781L17.5244 6.28906C17.2041 6.30469 17.0439 6.33594 17.0439 6.38281C17.0439 6.42578 17.124 6.48047 17.2842 6.55078C17.4521 6.625 17.6084 6.66016 17.752 6.66016C17.8955 6.66016 18.1836 6.60938 18.6162 6.50391L19.0117 6.45703C18.5957 7.67188 17.7158 8.93359 16.3721 10.2344C16.2363 10.3711 16.168 10.4688 16.168 10.5234C16.168 10.5391 16.1797 10.5469 16.2041 10.5469C16.3164 10.5469 16.5957 10.3828 17.0439 10.0547C17.4922 9.72656 17.9238 9.30859 18.3398 8.79688C18.7637 8.27734 19.1162 7.6875 19.3955 7.03125C19.3643 8.35156 19.3281 9.32031 19.2881 9.9375C18.8398 10.0312 18.4004 10.0938 17.9678 10.1172C17.752 10.1484 17.6436 10.2031 17.6436 10.2852C17.6436 10.3164 17.6875 10.3594 17.7764 10.4141C17.8643 10.4727 18.0645 10.5 18.376 10.5C18.6875 10.5 18.9883 10.4883 19.2764 10.4648C19.2119 11.2891 19.1641 11.7539 19.1318 11.8555C19.0996 11.9609 19.084 12.0938 19.084 12.2539C19.084 12.3281 19.0918 12.4023 19.1074 12.4805C19.127 12.582 19.1592 12.6875 19.2041 12.793C19.292 12.9844 19.3877 13.0781 19.4922 13.0781C19.708 13.0781 19.8164 12.6914 19.8164 11.9141L19.8037 11.4258V10.3789L20.5723 10.2617C20.8516 10.2188 21.0684 10.1719 21.2197 10.1172C21.3008 10.082 21.3613 10.0508 21.4014 10.0195C21.4404 9.98828 21.46 9.95703 21.46 9.92578C21.46 9.85938 21.4082 9.80078 21.3037 9.74219C21.2002 9.6875 21.0762 9.66016 20.9316 9.66016L20.748 9.66406L20.5957 9.69531L20.2002 9.76953C20.0156 9.79297 19.8838 9.82031 19.8037 9.85156L19.792 8.23047L19.8008 7.28125L19.8281 6.34766C20.4355 7.60547 20.8604 8.44922 21.0996 8.87891C21.3398 9.3125 21.5723 9.67188 21.7959 9.96094C22.0283 10.2383 22.252 10.4141 22.4678 10.4883C22.543 10.5117 22.6406 10.5312 22.7607 10.5469C22.9834 10.5703 23.2822 10.5859 23.6562 10.5859C24.2402 10.5859 24.5322 10.543 24.5322 10.4648C24.5322 10.3906 24.2676 10.2344 23.7402 9.99609C22.9795 9.64453 22.3242 9.18359 21.7715 8.61719ZM14.1641 8.39844C14.6436 7.95312 15.0801 7.4375 15.4717 6.85156C15.5684 7.16406 15.6162 7.57422 15.6162 8.08984L15.5986 8.73828C15.5811 9.06641 15.5508 9.41797 15.5078 9.79297C15.4443 10.4141 15.3682 10.8477 15.2803 11.0898C15.2461 11.1758 15.2236 11.2773 15.2139 11.3945L15.208 11.5312C15.208 11.6992 15.248 11.8945 15.3281 12.1211C15.3711 12.2383 15.415 12.3242 15.46 12.3789C15.499 12.4297 15.5391 12.457 15.5801 12.457C15.6758 12.457 15.752 12.4023 15.8076 12.3008C15.8643 12.2031 15.9199 11.9609 15.9756 11.5664C16.04 11.1758 16.0723 10.8359 16.0723 10.5469C16.0723 10.2539 16.084 9.6875 16.1084 8.85547L16.1436 7.17578C16.1436 7.12109 16.1377 7.07031 16.125 7.02344C16.1055 6.94922 16.0723 6.87891 16.0244 6.81641C15.9521 6.71094 15.8477 6.60938 15.7119 6.50391C15.8477 6.29688 15.96 6.11328 16.0479 5.95312C16.4795 5.19141 16.7363 4.75391 16.8164 4.63281C16.9043 4.51172 16.9756 4.42969 17.0322 4.37891C17.0957 4.32422 17.1279 4.25781 17.1279 4.17578C17.1279 4.08984 17.0039 3.94922 16.7559 3.75781C16.5156 3.55469 16.3281 3.45703 16.1924 3.45703C16.0645 3.45703 16 3.51172 16 3.625C16 3.65625 16.0078 3.69531 16.0244 3.74219C16.0479 3.79297 16.0596 3.85938 16.0596 3.94922C16.0596 4.26172 15.8916 4.76953 15.5557 5.47266C15.3516 5.89453 15.127 6.30469 14.8809 6.70312C14.7227 6.96094 14.5557 7.21484 14.3799 7.46484C13.9316 8.09766 13.5684 8.55469 13.2881 8.84375C13.208 8.92578 13.168 8.98438 13.168 9.02344C13.168 9.05469 13.1875 9.07031 13.2275 9.07031C13.3721 9.07031 13.6836 8.84766 14.1641 8.39844ZM8.69238 6.21484L8.7041 5.73438C9.63184 5.39062 10.2002 5.19922 10.4082 5.16016C10.5684 5.12891 10.6484 5.07031 10.6484 4.99219C10.6484 4.95703 10.6309 4.91016 10.5967 4.84766C10.5566 4.77734 10.4941 4.69531 10.4082 4.59766C10.2559 4.40234 10.1279 4.30859 10.0244 4.30859C9.91992 4.30859 9.85645 4.375 9.83203 4.51172C9.79199 4.73438 9.41992 5.05078 8.71582 5.46094C8.74023 5.14844 8.78027 4.85547 8.83594 4.58594C8.8916 4.30469 8.95215 4.11328 9.01562 4.00781C9.08008 3.90234 9.1123 3.79688 9.1123 3.68359C9.1123 3.5625 9 3.44922 8.77637 3.33594C8.55176 3.21484 8.37598 3.15625 8.24805 3.15625C8.12793 3.15625 8.06836 3.19531 8.06836 3.27734C8.06836 3.34766 8.1084 3.44141 8.18848 3.55078C8.23828 3.61719 8.27441 3.73047 8.2959 3.88672C8.3125 4.00391 8.32031 4.14844 8.32031 4.32031L8.25977 6.32422C8.25977 6.55859 8.26953 6.75 8.29004 6.89844L8.33203 7.10547C8.3877 7.26562 8.47168 7.38672 8.58398 7.47656C8.7041 7.5625 8.82422 7.63672 8.94434 7.69141C9.00977 7.72266 9.09961 7.74609 9.21387 7.76172C9.32422 7.77344 9.45898 7.77734 9.61621 7.77734C10.2236 7.77734 10.6885 7.70312 11.0078 7.55859C11.2139 7.46484 11.3545 7.36328 11.4307 7.25391C11.4766 7.19141 11.5 7.125 11.5 7.05469C11.5 6.99219 11.4756 6.91797 11.4277 6.82812C11.3877 6.74219 11.3203 6.4375 11.2236 5.91797C11.207 5.82812 11.1885 5.76953 11.168 5.73828C11.1592 5.72656 11.1494 5.72266 11.1396 5.72266C11.1084 5.72266 11.0596 5.86719 10.9961 6.15625C10.9404 6.4375 10.8604 6.65234 10.7559 6.80469C10.6602 6.94922 10.5039 7.05469 10.2881 7.12891C10.0723 7.19922 9.80762 7.23438 9.49609 7.23438C9.19238 7.23438 8.98047 7.17578 8.86035 7.05469C8.74805 6.9375 8.69238 6.65625 8.69238 6.21484ZM5.06836 5.96484C4.85156 5.96484 4.6123 5.99219 4.34766 6.04688C4.38281 5.625 4.42383 5.25391 4.47266 4.93359C4.53613 4.51562 4.61035 4.1875 4.69629 3.94922C4.71973 3.86719 4.73242 3.80859 4.73242 3.76953C4.73242 3.64844 4.58789 3.52734 4.2998 3.41016C4.13672 3.33594 4.00488 3.28125 3.9043 3.25C3.83203 3.22656 3.77637 3.21484 3.73633 3.21484C3.68945 3.21484 3.65332 3.22266 3.62988 3.24219C3.60449 3.26562 3.5918 3.29688 3.5918 3.33594C3.5918 3.41797 3.63184 3.51562 3.71191 3.63672C3.79199 3.75 3.84375 3.96484 3.86816 4.28516C3.8916 4.60547 3.90039 5.23047 3.8916 6.16797C2.85156 6.42578 2.16797 6.55859 1.83984 6.57812C1.64844 6.59375 1.55176 6.63281 1.55176 6.69531C1.55176 6.76172 1.61621 6.82031 1.74414 6.875C1.87988 6.93359 2.04395 6.96094 2.23633 6.96094C2.42773 6.96094 2.91992 6.88672 3.71191 6.74609C3.47168 7.375 3.08398 8.05469 2.54785 8.78516C2.01953 9.50391 1.53613 10.0391 1.0957 10.3906C1.03223 10.4492 1 10.5 1 10.5469C1 10.5898 1.04004 10.6094 1.12012 10.6094C1.1709 10.6094 1.25781 10.5742 1.38086 10.5039L1.70801 10.2969C2.01172 10.0898 2.36035 9.76172 2.75195 9.3125C3.15234 8.85547 3.51562 8.33594 3.84375 7.75391C3.78027 9.51953 3.67188 10.7461 3.51953 11.4258L3.4375 11.7891C3.4209 11.8867 3.41211 11.9688 3.41211 12.0352C3.41211 12.1797 3.45996 12.3477 3.55566 12.5391C3.65234 12.7422 3.74805 12.8398 3.84375 12.8398C3.90039 12.8398 3.95312 12.793 4.00195 12.7031C4.04395 12.625 4.08301 12.5156 4.12012 12.3711C4.2002 12.0586 4.24023 11.6172 4.24023 11.0391L4.21582 9.98438L4.22266 9.16797L4.24023 8.35156L4.26367 8.11328C4.26367 8.18359 4.37207 8.35938 4.58789 8.64062C4.81152 8.92188 4.98828 9.05859 5.11621 9.05859C5.17188 9.05859 5.21973 9.03125 5.25977 8.97656C5.2998 8.92188 5.32031 8.84766 5.32031 8.76172C5.32031 8.51172 5.21191 8.32422 4.99609 8.19531C4.78809 8.05859 4.5918 7.99219 4.4082 7.99219C4.31152 7.99219 4.26367 8.03125 4.26367 8.11328L4.27637 7.06641L4.2998 6.67188L4.32422 6.625C4.56445 6.56641 4.7998 6.52344 5.03223 6.49219C5.43164 6.41406 5.63184 6.32031 5.63184 6.21484C5.63184 6.17969 5.61035 6.14453 5.56934 6.10547L5.51172 6.05859C5.44043 5.99609 5.29199 5.96484 5.06836 5.96484ZM7.67188 5.35156C7.57617 5.35156 7.20801 5.46484 6.56836 5.6875C6.59961 5.33594 6.62793 5.12891 6.65234 5.0625C6.68359 4.99219 6.7002 4.93359 6.7002 4.88281C6.7002 4.74219 6.58789 4.60938 6.36426 4.48828C6.26172 4.42969 6.17285 4.38672 6.0957 4.35547C6.00293 4.31641 5.92871 4.29688 5.87207 4.29688C5.77637 4.29688 5.72754 4.33594 5.72754 4.41797C5.72754 4.48828 5.75977 4.56641 5.82422 4.65625C5.86621 4.71484 5.9043 4.80078 5.93945 4.91406L5.99219 5.11328C6.01758 5.22656 6.03613 5.37109 6.04785 5.54688C6.05859 5.69922 6.06445 5.87109 6.06445 6.07031C6.06445 6.48828 6.04785 6.81641 6.01562 7.05469C5.98438 7.28906 5.91992 7.45312 5.82422 7.54688C5.67969 7.68359 5.6084 7.83984 5.6084 8.01562C5.6084 8.08984 5.63184 8.17969 5.67969 8.29297C5.73633 8.39453 5.7959 8.44922 5.86035 8.44922C5.93164 8.44922 6.06445 8.34766 6.25586 8.14844C6.3418 8.05859 6.4834 7.9375 6.68164 7.78906C6.92773 7.60156 7.26172 7.36719 7.68359 7.08203C7.77246 7.02344 7.81641 6.97656 7.81641 6.9375C7.81641 6.89453 7.78027 6.875 7.70801 6.875C7.64355 6.875 7.47559 6.92969 7.2041 7.03125C6.94043 7.13672 6.7002 7.25781 6.48438 7.39062L6.50781 6.85156L6.55566 5.95312C6.67578 5.97656 6.81152 5.98828 6.96387 5.98828C7.11621 5.98828 7.32812 5.94531 7.59961 5.85547C7.87207 5.76953 8.00781 5.66797 8.00781 5.55469C8.00781 5.49219 7.97559 5.44531 7.91211 5.41406C7.85645 5.37109 7.77637 5.35156 7.67188 5.35156ZM8.34375 9.03516C8.16016 9.08594 7.7959 9.15625 7.25195 9.25391C7.60352 8.875 7.87207 8.61719 8.05566 8.47266C8.13574 8.41016 8.17578 8.33984 8.17578 8.26953C8.17578 8.24219 8.16309 8.21484 8.1377 8.19141C8.0957 8.14844 8.02051 8.10547 7.91211 8.0625C7.73633 8 7.57617 7.96875 7.43164 7.96875C7.28809 7.96875 7.21582 8.02344 7.21582 8.13672L7.22754 8.26953C7.24414 8.31641 7.25195 8.37109 7.25195 8.4375C7.25195 8.66016 7.11621 8.95703 6.84375 9.32422L6.55566 9.37109C6.37207 9.30859 6.21191 9.27734 6.07617 9.27734C5.94043 9.27734 5.87207 9.30859 5.87207 9.37109C5.87207 9.42969 5.9082 9.50391 5.98047 9.60156C6.05176 9.6875 6.11621 9.91797 6.17188 10.2852C6.22754 10.6445 6.25586 10.9648 6.25586 11.2461C6.25586 11.5234 6.24805 11.7461 6.23242 11.9023C6.21582 12.0625 6.24414 12.2266 6.31641 12.3945C6.39648 12.5703 6.47168 12.6602 6.54395 12.6602C6.62402 12.6602 6.68359 12.6016 6.72363 12.4805C6.77246 12.3672 6.79199 12.1953 6.78418 11.9648L7.01172 11.9766C7.1084 11.9766 7.33594 11.9609 7.69629 11.9297C8.06445 11.8945 8.32422 11.8789 8.47559 11.8789C8.62793 11.8789 8.71191 11.8984 8.72754 11.9414C8.74414 11.9805 8.77246 12.1016 8.81152 12.3008C8.86035 12.5 8.9082 12.6719 8.95605 12.8164C9.01172 12.9688 9.08008 13.043 9.16016 13.043C9.24805 13.043 9.3916 12.918 9.5918 12.6602C9.7998 12.4023 9.9043 11.8164 9.9043 10.8945L9.87988 10.2109C9.87988 9.96484 9.91211 9.77734 9.97559 9.64844C10.04 9.51953 10.0723 9.42969 10.0723 9.37109C10.0723 9.24609 9.94434 9.11328 9.68848 8.97656C9.44043 8.83984 9.26367 8.77344 9.16016 8.77344C9.05566 8.77344 8.94043 8.80469 8.81152 8.86719C8.69238 8.92578 8.53613 8.98047 8.34375 9.03516ZM7.75195 11.5273C7.50586 11.5742 7.17969 11.6484 6.77246 11.75L6.74805 10.7266C6.86816 10.7539 7.02441 10.7656 7.21582 10.7656C7.35449 10.7656 7.52344 10.75 7.72363 10.7227L8.00781 10.6797C8.34375 10.6172 8.54395 10.5664 8.6084 10.5352C8.67188 10.4961 8.7041 10.4453 8.7041 10.3789C8.7041 10.3164 8.66016 10.2656 8.57227 10.2227C8.48438 10.1836 8.37598 10.1641 8.24805 10.1641C8.12012 10.1641 7.9082 10.2109 7.6123 10.3086C7.31641 10.4023 7.02441 10.4688 6.73633 10.5L6.71191 9.60156L7.80371 9.44531C8.28418 9.36328 8.59961 9.32422 8.75195 9.32422C8.9043 9.32422 9.00391 9.34766 9.05176 9.39453C9.09961 9.4375 9.13965 9.58594 9.17188 9.83984C9.2041 10.0977 9.21973 10.3672 9.21973 10.6562L9.21289 11.0156L9.18359 11.4141L9.16309 11.6367C9.15137 11.7227 9.13867 11.7773 9.12402 11.7969C9.1084 11.8359 9.08008 11.8555 9.04004 11.8555C9.02344 11.8555 9.00293 11.8477 8.97949 11.832C8.94629 11.8086 8.90723 11.7734 8.86035 11.7227C8.78027 11.6367 8.7002 11.5703 8.62012 11.5312C8.54004 11.4844 8.4082 11.4609 8.22363 11.4609C8.13574 11.4609 7.97852 11.4844 7.75195 11.5273Z" fill="black"/>
</svg>
