<svg xmlns="http://www.w3.org/2000/svg" xml:space="preserve" id="图层_1" x="0" y="0" version="1.1" viewBox="0 0 250 250"><style>.st1{fill:#fff}</style><path d="M208.2 249.6H41.8C18.9 249.6.4 231.1.4 208.2V41.8C.4 18.9 18.9.4 41.8.4h166.4c22.9 0 41.4 18.5 41.4 41.4v166.4c0 22.9-18.5 41.4-41.4 41.4" style="fill:#067bef"/><path d="M135.2 123.7c0 42.3-25.7 66.5-60.5 66.5-35.6 0-58.1-27.2-58.1-64.3 0-38.8 24.4-66.1 59.9-66.1 37 .1 58.7 28 58.7 63.9M41 125.6c0 25.7 12.9 46.1 35 46.1 22.3 0 34.8-20.6 34.8-47 0-23.8-11.8-46.3-34.8-46.3-22.8 0-35 21.2-35 47.2M150.8 124.1c0-10.5-.2-19.3-.7-27.2h20.2l1.1 13.7h.6c3.9-7.1 13.9-15.7 29-15.7 15.9 0 32.4 10.3 32.4 39.2v54.1h-23v-51.5c0-13.1-4.9-23-17.4-23-9.2 0-15.5 6.6-18 13.5-.7 2.1-.9 4.9-.9 7.5v53.6h-23.2z" class="st1"/></svg>