<svg width="24" height="16" viewBox="0 0 24 16" fill="none" xmlns="http://www.w3.org/2000/svg">
<path fill-rule="evenodd" clip-rule="evenodd" d="M6.228 3.116C6.228 2.748 5.684 2.376 4.596 2L4.56 2.12C5.112 2.56 5.436 3.024 5.532 3.512C5.572 3.736 5.648 3.848 5.76 3.848C5.88 3.848 5.988 3.776 6.084 3.632C6.18 3.48 6.228 3.308 6.228 3.116ZM10.584 4.244C10.584 4.196 10.544 4.136 10.464 4.064L9.78 3.44L9.396 3.908H2.088C2.104 3.676 2.112 3.476 2.112 3.308H1.932C1.868 3.724 1.736 4.096 1.536 4.424C1.336 4.752 1.136 4.972 0.936 5.084C0.744 5.196 0.648 5.324 0.648 5.468C0.648 5.66 0.768 5.756 1.008 5.756C1.256 5.756 1.48 5.648 1.68 5.432C1.88 5.216 2.008 4.796 2.064 4.172H9.48L8.664 5.552L8.82 5.624C9.276 5.144 9.6 4.824 9.792 4.664C9.992 4.504 10.172 4.404 10.332 4.364C10.5 4.324 10.584 4.284 10.584 4.244ZM10.104 11.72C10.336 11.432 10.708 11.288 11.22 11.288V11.144C10.028 11.016 9.048 10.648 8.28 10.04C7.512 9.432 6.884 8.528 6.396 7.328H10.68C10.832 7.328 10.908 7.308 10.908 7.268C10.908 7.22 10.86 7.152 10.764 7.064L10.008 6.344L9.48 7.064H5.748V5.468L5.976 5.288C6.072 5.216 6.12 5.16 6.12 5.12C6.12 5.072 6.064 5.024 5.952 4.976L5.148 4.58C5.18 5.212 5.196 5.796 5.196 6.332V7.064H1.032C0.832 7.064 0.54 7.048 0.156 7.016L0.492 7.46C0.716 7.372 0.984 7.328 1.296 7.328H4.572C3.54 9.392 2.016 11.092 0 12.428L0.096 12.572C1.184 12.02 2.12 11.36 2.904 10.592C3.688 9.824 4.452 8.772 5.196 7.436V10.58C5.196 11.164 5.188 11.656 5.172 12.056L5.148 12.992C5.148 13.176 5.172 13.268 5.22 13.268C5.276 13.268 5.384 13.236 5.544 13.172C5.712 13.108 5.796 13.008 5.796 12.872C5.796 12.84 5.788 12.64 5.772 12.272C5.756 11.912 5.748 11.356 5.748 10.604V7.328H6.216C6.432 8.232 6.776 9.008 7.248 9.656C7.72 10.296 8.256 10.82 8.856 11.228C9.464 11.628 9.828 11.828 9.948 11.828C9.996 11.828 10.048 11.792 10.104 11.72ZM22.716 10.5794C22.892 10.5794 23.088 10.5994 23.304 10.6394V10.5194C22.528 10.2394 21.824 9.58344 21.192 8.55144C20.568 7.51944 20.152 6.35944 19.944 5.07144H22.644C22.764 5.07144 22.824 5.04344 22.824 4.98744C22.824 4.92344 22.792 4.86744 22.728 4.81944L21.912 4.14744L21.432 4.80744H19.152V2.94744L19.488 2.68344C19.544 2.64344 19.572 2.60344 19.572 2.56344C19.572 2.52344 19.536 2.49144 19.464 2.46744L18.54 2.02344C18.572 2.65544 18.588 3.23944 18.588 3.77544V4.80744H15.84C15.64 4.80744 15.348 4.79144 14.964 4.75944L15.3 5.20344C15.524 5.11544 15.792 5.07144 16.104 5.07144H18.168C17.632 6.56744 17.096 7.76744 16.56 8.67144C16.032 9.56744 15.344 10.4634 14.496 11.3594L14.592 11.4674C15.432 10.7554 16.168 9.93544 16.8 9.00744C17.44 8.07144 18.036 6.91544 18.588 5.53944V10.1234H17.124C16.924 10.1234 16.644 10.1074 16.284 10.0754L16.608 10.5074C16.824 10.4274 17.08 10.3874 17.376 10.3874H18.588C18.588 11.1954 18.584 11.7834 18.576 12.1514L18.564 13.1354C18.564 13.2794 18.584 13.3514 18.624 13.3514C18.672 13.3514 18.776 13.2994 18.936 13.1954C19.104 13.0914 19.188 12.9674 19.188 12.8234C19.188 12.8074 19.18 12.5794 19.164 12.1394C19.156 11.7074 19.152 11.1234 19.152 10.3874H20.964C21.06 10.3874 21.108 10.3594 21.108 10.3034C21.108 10.2394 21.08 10.1834 21.024 10.1354L20.34 9.59544L19.932 10.1234H19.152V5.07144H19.704C19.896 6.75144 20.316 8.13144 20.964 9.21144C21.62 10.2834 22.024 10.8194 22.176 10.8194C22.2 10.8194 22.224 10.8074 22.248 10.7834C22.392 10.6474 22.548 10.5794 22.716 10.5794ZM15.564 2.79144L14.832 2.28744C14.16 4.68744 13.188 6.91144 11.916 8.95944L12.036 9.05544C12.732 8.19144 13.328 7.28344 13.824 6.33144V10.7714C13.824 11.3874 13.816 11.9154 13.8 12.3554C13.784 12.7954 13.776 13.0514 13.776 13.1234C13.776 13.1954 13.796 13.2314 13.836 13.2314C13.884 13.2314 13.988 13.1794 14.148 13.0754C14.316 12.9714 14.4 12.8474 14.4 12.7034L14.376 12.0554C14.368 11.8234 14.364 11.4034 14.364 10.7954V6.17544L14.664 5.88744C14.712 5.84744 14.736 5.81144 14.736 5.77944C14.736 5.74744 14.712 5.71944 14.664 5.69544L14.22 5.50344C14.444 5.04744 14.748 4.36744 15.132 3.46344C15.204 3.28744 15.264 3.17944 15.312 3.13944C15.36 3.09944 15.44 3.06344 15.552 3.03144C15.664 2.99944 15.72 2.96744 15.72 2.93544C15.72 2.89544 15.668 2.84744 15.564 2.79144Z" fill="black"/>
</svg>
