<svg xmlns="http://www.w3.org/2000/svg" width="52" height="16" fill="none"><path fill="#212930" d="M10.972 2.691v5.824H1.924V2.691zm-4.03 2.496h3.081V3.549H6.942zm-4.108 0h3.159V3.549H2.834zm4.108 2.47h3.081V6.006H6.942zm-4.108 0h3.159V6.006H2.834zm2.769 1.118q.365.17.741.403a11 11 0 0 1 1.43.962q.325.247.546.468l-.663.65a5 5 0 0 0-.52-.468 11 11 0 0 0-.676-.494 11 11 0 0 0-.754-.494 10 10 0 0 0-.741-.442zm4.875.858q.285.364.559.78.285.416.52.845.247.416.442.819.195.39.312.728l-.936.416a4.5 4.5 0 0 0-.286-.728q-.182-.403-.416-.832a15 15 0 0 0-.507-.858 13 13 0 0 0-.546-.819zm-7.527.442a29 29 0 0 1-.26.845q-.143.442-.325.871a9 9 0 0 1-.377.832q-.208.39-.442.702l-.871-.455q.234-.3.442-.676.22-.39.39-.793.182-.416.325-.832a9 9 0 0 0 .26-.793zm6.812 1.456a9 9 0 0 1-.143 1.092q-.09.415-.273.663a.9.9 0 0 1-.481.338 2.2 2.2 0 0 1-.728.104H5.525q-.52 0-.858-.065a1.2 1.2 0 0 1-.546-.208.75.75 0 0 1-.273-.403 2.2 2.2 0 0 1-.078-.637V9.841h.962v2.561q0 .273.156.351t.702.078h2.47q.234 0 .377-.052a.44.44 0 0 0 .234-.234q.09-.182.13-.507t.065-.871q.17.117.429.221.26.09.468.143m4.966-9.256.559.338q.312.17.598.364.3.182.559.364.273.17.455.312l-.572.767a10 10 0 0 0-.442-.325q-.26-.195-.559-.39-.285-.195-.598-.39-.3-.208-.559-.377zm3.627 4.03q0 .845-.065 1.846-.052.988-.234 2.015a12 12 0 0 1-.533 1.989 7.6 7.6 0 0 1-.923 1.794 1.7 1.7 0 0 0-.377-.286 2.5 2.5 0 0 0-.416-.221q.546-.78.858-1.69.325-.91.481-1.859a14 14 0 0 0 .208-1.872q.052-.922.052-1.716V2.756h7.904v.884h-6.955zm3.549 7.553q-.26.104-.689.117-.416.026-1.079.013a3.2 3.2 0 0 0-.273-.832q.468.026.845.013h.494q.22-.013.221-.195v-3.38h-2.327V5.135h1.963a16 16 0 0 0 .377-1.313l1.079.221q-.142.285-.273.559-.13.273-.26.533h2.834v4.459h-2.47v3.393q0 .364-.091.559-.078.208-.351.312m-7.813-8.112q.26.143.559.312.312.17.611.351.3.169.559.338.273.157.468.286l-.572.78a5 5 0 0 0-.455-.312q-.26-.182-.559-.364-.285-.195-.598-.377-.3-.182-.572-.338zm5.876 1.261h3.952V5.876h-3.952zm0 1.846h3.952V7.709h-3.952zm-3.432.793q-.195.507-.429 1.053t-.481 1.092q-.234.532-.481 1.053t-.481.962l-.858-.533q.22-.377.468-.871a60 60 0 0 0 1.027-2.158q.26-.585.481-1.131zm7.514.572a29 29 0 0 1 .806 1.313q.208.325.377.637.182.3.299.533l-.884.39a6 6 0 0 0-.273-.559 28 28 0 0 0-.767-1.326q-.195-.351-.39-.663zm-3.627.338a10 10 0 0 1-.364.728q-.195.364-.416.715a12 12 0 0 1-.858 1.222 6 6 0 0 0-.377-.247 9 9 0 0 0-.403-.247q.455-.468.858-1.105.403-.65.689-1.3zm17.823-.468v.858H26.767v-.858h5.239v-1.17h-4.173v-.793h4.173V7.059h-3.952V2.613h8.853v4.446h-3.952v1.066h4.199v.793h-4.199v1.17zM28.977 6.24h3.029V3.432h-3.029zm3.978 0h2.99V3.432h-2.99zm2.34-2.21q-.273.533-.572 1.092-.3.546-.559.936l-.624-.26q.13-.208.26-.468.142-.26.273-.533.143-.286.26-.546.13-.273.208-.507zm-4.953-.273q.143.221.273.481.143.247.247.507.117.247.195.481.09.234.13.429l-.676.26a2.6 2.6 0 0 0-.13-.429 6 6 0 0 0-.182-.494 7 7 0 0 0-.234-.52 13 13 0 0 0-.26-.494zm-1.196 7.93q-.247.624-.624 1.274a4.8 4.8 0 0 1-.845 1.092l-.897-.429q.443-.377.819-.962.39-.598.624-1.196zm7.449-.221q.234.235.481.52.26.286.481.585.234.286.429.559.195.286.325.52l-.936.364a7.5 7.5 0 0 0-.715-1.092q-.22-.3-.468-.598-.234-.3-.468-.559zm-2.6.169q.22.495.429 1.079.22.572.312.975l-.949.234a5 5 0 0 0-.117-.468 18 18 0 0 0-.169-.533 15 15 0 0 0-.403-1.105zm-2.665.091q.064.247.117.533.052.286.091.559t.052.52q.026.26.026.455l-.949.13q0-.403-.065-1.001t-.169-1.131zm11.869-9.282q-.234.702-.533 1.391-.286.69-.624 1.352v8.788h-.923V6.786a14 14 0 0 1-1.105 1.495 3 3 0 0 0-.117-.208 4 4 0 0 0-.143-.26 8 8 0 0 0-.156-.273 2 2 0 0 0-.143-.208q.429-.468.832-1.053.416-.598.78-1.261a17 17 0 0 0 1.235-2.847zm4.277 9.152v2.327h-.936v-2.327h-2.119v-.884h2.119v-4.42a19 19 0 0 1-.702 1.651 16 16 0 0 1-.819 1.534q-.443.728-.936 1.352-.48.624-.988 1.092a4 4 0 0 0-.338-.377 2.7 2.7 0 0 0-.364-.351 7.7 7.7 0 0 0 1.04-1.027q.52-.611.975-1.326.455-.728.845-1.534.404-.819.702-1.638H42.9v-.936h3.64V2.171h.936v2.561h3.874v.936H48.1q.285.819.676 1.612.39.793.845 1.508t.962 1.313 1.027 1.027a2.7 2.7 0 0 0-.39.351 3 3 0 0 0-.338.416 9.5 9.5 0 0 1-1.001-1.092q-.48-.637-.923-1.378a19.7 19.7 0 0 1-1.482-3.224v4.511h2.093v.884z"/></svg>