<svg xmlns="http://www.w3.org/2000/svg" width="53" height="16" fill="none"><path fill="#212930" d="M3.679 8.645q0 .052-.117.143-.105.09-.299.169-.182.078-.416.143a2.2 2.2 0 0 1-.481.052h-.221V2.288l1.638.65h5.434l.715-.78 1.482 1.131a1 1 0 0 1-.195.169q-.13.078-.338.117v4.953q0 .039-.13.104a3 3 0 0 1-.325.13 4 4 0 0 1-.403.117 2.4 2.4 0 0 1-.416.039h-.26v-.702H3.679zm0-3.302h2.106V3.315H3.679zm3.575 0h2.093V3.315H7.254zm0 2.496h2.093V5.707H7.254zm-3.575 0h2.106V5.707H3.679zm2.067.819q.78.17 1.274.442.494.26.754.572.26.3.325.611.065.3-.026.559a.87.87 0 0 1-.299.403.7.7 0 0 1-.455.156q-.156 0-.325-.052a1.2 1.2 0 0 1-.338-.208 2.8 2.8 0 0 0-.104-.637 4 4 0 0 0-.234-.65 4 4 0 0 0-.312-.598 4 4 0 0 0-.364-.52zm4.563 4.199a.62.62 0 0 1-.143.416q-.13.17-.494.273-.364.105-1.001.143-.624.052-1.599.052h-1.69q-.559 0-.923-.052-.35-.052-.559-.195a.72.72 0 0 1-.286-.403 2.2 2.2 0 0 1-.078-.637V9.308l1.937.156q-.039.26-.403.338v2.353q0 .143.091.195.09.052.468.052h2.379q.364 0 .52-.013a.7.7 0 0 0 .247-.052.5.5 0 0 0 .156-.143 3 3 0 0 0 .273-.559q.156-.39.351-.975h.143l.039 1.586q.351.117.455.26a.54.54 0 0 1 .117.351m-.585-3.419q.897.247 1.469.598t.884.728q.325.377.403.767.09.377.013.676a.97.97 0 0 1-.299.494.73.73 0 0 1-.494.182q-.17 0-.351-.065a1.2 1.2 0 0 1-.351-.221 3.5 3.5 0 0 0-.156-.819 4.4 4.4 0 0 0-.312-.819 5 5 0 0 0-.429-.767 6 6 0 0 0-.494-.663zm-7.956 3.523a.98.98 0 0 1-1.014.026.77.77 0 0 1-.312-.416q-.13-.403.065-.689t.52-.468a1.8 1.8 0 0 0 .364-.286q.182-.195.325-.442a2.2 2.2 0 0 0 .221-.533q.09-.3.065-.624l.156-.013q.3.663.377 1.235a3 3 0 0 1-.013 1.001 1.95 1.95 0 0 1-.286.741q-.195.312-.468.468m21.047-.611q0 .364-.065.676-.052.312-.247.546a1.26 1.26 0 0 1-.533.377q-.351.156-.923.208a4 4 0 0 0-.065-.624 1.1 1.1 0 0 0-.182-.429.87.87 0 0 0-.364-.286 2 2 0 0 0-.585-.182v-.169l.559.026q.22.025.429.039h.312q.143 0 .182-.052a.26.26 0 0 0 .052-.169V9.139h-.741v.195q0 .039-.104.117a.9.9 0 0 1-.26.143 3 3 0 0 1-.364.117q-.195.052-.416.052h-.195V4.485l1.404.572h.351a8 8 0 0 0 .078-.741q.04-.416.065-.845h-2.561v2.743q0 .897-.065 1.937a11.7 11.7 0 0 1-.299 2.093 8.7 8.7 0 0 1-.741 2.054 6.3 6.3 0 0 1-1.404 1.82l-.156-.091q.429-.87.676-1.846.247-.975.364-1.976.13-1.014.156-2.028.039-1.014.039-1.963V2.496l1.651.611h4.563l.793-1.053.52.416q.22.182.468.403.26.209.455.39a.24.24 0 0 1-.117.156.5.5 0 0 1-.234.052h-3.536l1.339.312q-.09.285-.481.299a10 10 0 0 1-.507.52 7 7 0 0 1-.559.455h1.807l.637-.676 1.339 1.014q-.104.156-.468.234v3.64q0 .039-.117.104a4 4 0 0 1-.299.117 4 4 0 0 1-.377.091q-.195.039-.364.039h-.234v-.481h-.676zm-8.58-10.257q.754.065 1.222.26.48.195.728.442a1 1 0 0 1 .325.507.8.8 0 0 1-.013.481.76.76 0 0 1-.273.351.7.7 0 0 1-.442.143q-.3 0-.585-.195a3 3 0 0 0-.429-1.027 6 6 0 0 0-.637-.884zm1.872 10.985q-.026.495-.312.793-.273.3-.728.299a.7.7 0 0 1-.429-.156q-.195-.156-.26-.533.09-.507.117-.975.04-.468.026-.845a3 3 0 0 0-.078-.624q-.065-.26-.182-.338a.9.9 0 0 0-.299-.143 3 3 0 0 0-.364-.065v-.26h.572q.143 0 .195-.026.065-.039.169-.247l.117-.234q.052-.104.13-.312.09-.208.234-.559.143-.365.377-.975.247-.611.611-1.534.364-.936.884-2.288l.195.065-.767 3.029q-.195.78-.351 1.43-.143.637-.195.91a9 9 0 0 0-.13.676q-.04.325-.026.559.013.273.091.507a11 11 0 0 1 .182.507q.105.26.169.585.078.325.052.754m-2.691-7.969q.715.052 1.157.221.455.17.689.39.247.22.299.468a.74.74 0 0 1-.013.455.8.8 0 0 1-.26.338.72.72 0 0 1-.429.13q-.273 0-.572-.195a2 2 0 0 0-.143-.468 3.3 3.3 0 0 0-.247-.455 3 3 0 0 0-.286-.429 2.6 2.6 0 0 0-.299-.364zm7.228 1.846h2.847V5.434h-2.847zm0 1.807h2.847v-1.43h-2.847zm.052 2.041a13 13 0 0 1-.507.715q-.285.364-.637.728a7 7 0 0 1-1.586 1.274l-.13-.143q.3-.365.559-.819.273-.455.494-.923t.39-.923q.17-.468.26-.845l1.625.754a.28.28 0 0 1-.143.156q-.105.052-.325.026m2.457-.702q1.118.429 1.651.975.546.533.676 1.014.143.481-.052.806-.182.325-.533.325-.285 0-.559-.221a3.5 3.5 0 0 0-.195-.728 8 8 0 0 0-.325-.741 6 6 0 0 0-.403-.715 12 12 0 0 0-.403-.637zm8.19-8.125q.805.014 1.3.182.507.156.767.403a.92.92 0 0 1 .312.52.9.9 0 0 1-.052.52.9.9 0 0 1-.338.39.86.86 0 0 1-.507.156q-.351 0-.702-.26a2.4 2.4 0 0 0-.26-1.001 2.4 2.4 0 0 0-.611-.832zM27.82 6.461a.7.7 0 0 1-.234.117 1.4 1.4 0 0 1-.273.026q-.26 0-.507-.13a.8.8 0 0 1-.351-.429q-.104-.403.078-.689.195-.3.52-.468.17-.09.351-.234.182-.156.325-.351.142-.208.234-.442.09-.234.078-.481h.169q.156.404.234.78h7.943l.819-.819L38.61 4.68a.35.35 0 0 1-.195.117q-.104.026-.299.039-.182.17-.416.364-.233.195-.494.377a8 8 0 0 1-.52.351 4 4 0 0 1-.507.286l-.104-.078q.105-.325.208-.767.117-.455.182-.845h-7.956q.09.741-.117 1.235-.209.48-.572.702m5.434 7.215q0 .065-.117.143a2 2 0 0 1-.299.156 2.1 2.1 0 0 1-.832.182h-.286V9.581a10.3 10.3 0 0 1-2.21 2.314 14.5 14.5 0 0 1-3.016 1.742l-.117-.156a10.7 10.7 0 0 0 1.482-1.17q.69-.663 1.261-1.404.572-.74 1.014-1.534a11 11 0 0 0 .754-1.612h-3.913l-.104-.377h4.849V4.797l1.963.182a.37.37 0 0 1-.104.234q-.09.078-.325.117v2.054h2.73l.806-1.053q.273.208.533.416.22.182.468.403.26.208.468.403-.052.208-.351.208h-4.472q.429.741 1.014 1.404t1.261 1.222q.69.546 1.443.975t1.495.702l-.039.156a1.47 1.47 0 0 0-.767.403q-.325.325-.481.858a8.5 8.5 0 0 1-2.457-2.236q-1.014-1.378-1.651-3.25zm9.035.039q0 .039-.117.117-.105.078-.286.143a2 2 0 0 1-.39.13 1.8 1.8 0 0 1-.429.052h-.286V7.449q-.61.741-1.352 1.365l-.156-.104q.364-.624.715-1.404a25 25 0 0 0 1.235-3.484q.26-.936.429-1.872l2.145.637q-.078.273-.52.273a18.5 18.5 0 0 1-1.183 2.652l.611.221q-.078.182-.416.26zm5.408-.039q0 .065-.117.143-.105.09-.286.182-.17.09-.39.143a1.6 1.6 0 0 1-.442.065h-.286v-2.704H44.33l-.091-.364h1.937V7.605a11.6 11.6 0 0 1-3.614 4.264l-.143-.143q.56-.638 1.027-1.404.468-.78.845-1.625.39-.845.676-1.729.285-.897.481-1.768h-2.522l-.104-.377h3.354V1.989l2.002.195a.46.46 0 0 1-.13.247q-.09.09-.351.13v2.262h1.508l.78-1.105.52.442q.22.182.468.416.247.22.442.416-.052.208-.351.208h-3.107a11.6 11.6 0 0 0 1.625 3.081q.507.662 1.066 1.196.572.52 1.17.884l-.052.13q-.416.091-.754.416-.338.312-.52.858-1.053-1.092-1.729-2.73-.663-1.65-1.04-3.835h-.026v5.941h.26l.689-1.027.442.416q.195.181.403.39.208.195.377.377-.052.208-.351.208h-1.82z"/></svg>