<svg xmlns="http://www.w3.org/2000/svg" xml:space="preserve" id="图层_1" x="0" y="0" version="1.1" viewBox="0 0 25 14"><style>.st1{fill-rule:evenodd;clip-rule:evenodd;fill:#985a10}</style><linearGradient id="SVGID_1_" x1="25.452" x2=".074" y1="11.478" y2="4.663" gradientTransform="matrix(1 0 0 -1 0 15)" gradientUnits="userSpaceOnUse"><stop offset="0" style="stop-color:#ffc988"/><stop offset="1" style="stop-color:#ffe4c2"/></linearGradient><path d="M1.8 0h21.5c1 0 1.8.8 1.8 1.8v10.5c0 1-.8 1.8-1.8 1.8H1.8c-1 0-1.8-.8-1.8-1.8V1.8C0 .8.8 0 1.8 0" style="fill:url(#SVGID_1_)"/><path d="M5.9 3.4H4.4l1.9 7.3h1.4l4-7.3h-1.5L7.2 9zM13.8 3.4h-1.4l-1 7.3h1.4zM18.4 3.4h-3l-1 7.3h1.4l.3-2.1h1.5c.9 0 1.7-.2 2.3-.7s.9-1.1 1-1.9-.1-1.4-.5-1.9-1.1-.7-2-.7m-.6 3.9h-1.5l.4-2.6h1.5q.75 0 1.2.3c.2.2.3.5.3 1-.1.5-.3.8-.6 1s-.7.3-1.3.3" class="st1"/></svg>