<svg width="49" height="43" viewBox="0 0 49 43" fill="none" xmlns="http://www.w3.org/2000/svg">
<path d="M48.0999 13.6554C44.1716 6.28331 34.8743 1.10156 24.0306 1.10156C14.3922 1.10156 5.97566 5.19536 1.46505 11.2823M48.0999 29.3477C44.1716 36.7198 34.8743 41.9016 24.0306 41.9016C13.9738 41.9016 5.24719 37.4446 0.899902 30.9169" stroke="#212930" stroke-width="1.6" stroke-dasharray="1.6 1.6"/>
<path d="M4.8999 13.5016C8.65437 8.48003 15.6718 5.10156 23.7091 5.10156C32.3433 5.10156 39.8006 9.00056 43.2999 14.647M4.8999 30.3016C8.65437 35.3231 15.6718 38.7016 23.7091 38.7016C32.3433 38.7016 39.8006 34.8026 43.2999 29.1561" stroke="#212930" stroke-width="0.8" stroke-dasharray="0.8 0.8"/>
<path d="M1.62 16.664H10.884V17.48H7.728V20.456H11.124V21.284H2.568V22.964C2.52 24.74 2.028 26.168 1.092 27.236L0.444 26.66C1.236 25.772 1.656 24.548 1.704 22.964V20.456H4.764V17.48H1.62V16.664ZM5.568 20.456H6.924V17.48H5.568V20.456ZM9.456 17.924L10.164 18.116C9.948 18.848 9.66 19.496 9.312 20.048L8.604 19.796C8.928 19.304 9.216 18.68 9.456 17.924ZM2.916 17.948C3.264 18.512 3.564 19.112 3.816 19.76L3.12 20.072C2.832 19.352 2.52 18.728 2.184 18.188L2.916 17.948ZM13.944 21.392H22.044V22.16H13.944V21.392ZM12.948 23.144H23.052V23.924H18.612V26.3C18.612 26.9 18.276 27.2 17.616 27.2H16.464L16.296 26.42C16.656 26.456 17.004 26.48 17.34 26.48C17.604 26.48 17.736 26.348 17.736 26.096V23.924H12.948V23.144ZM20.532 24.524C21.468 25.052 22.32 25.712 23.1 26.48L22.608 27.224C21.792 26.36 20.952 25.676 20.1 25.172L20.532 24.524ZM15.264 24.5L15.864 25.028C15.216 25.844 14.412 26.552 13.452 27.152L12.912 26.468C13.848 25.904 14.628 25.244 15.264 24.5ZM12.96 17.252H15.06V16.172H15.912V17.252H17.724V18.044H15.912V18.248C16.476 18.584 17.04 18.968 17.616 19.4L17.148 20.084C16.656 19.556 16.248 19.148 15.912 18.848V20.924H15.06V18.74C14.544 19.556 13.932 20.252 13.224 20.804L12.744 20.096C13.644 19.52 14.364 18.836 14.904 18.044H12.96V17.252ZM18.276 17.264H20.004V16.16H20.856V17.264H23.04V18.044H21.276C21.696 18.8 22.368 19.472 23.304 20.072L22.752 20.768C21.888 20 21.252 19.172 20.856 18.26V20.936H20.004V18.32C19.512 19.352 18.912 20.204 18.192 20.876L17.712 20.156C18.504 19.556 19.128 18.86 19.608 18.044H18.276V17.264ZM27.336 17.84C27.156 18.128 26.964 18.404 26.76 18.668H33.816V22.46H29.064C28.884 22.748 28.68 23.012 28.464 23.276H33.84V23.9C33.24 24.668 32.448 25.292 31.464 25.796C32.616 26.132 33.912 26.324 35.328 26.372L35.124 27.164C33.372 27.08 31.8 26.78 30.432 26.252C29.016 26.78 27.312 27.092 25.296 27.212L24.948 26.456C26.688 26.384 28.176 26.168 29.412 25.808C28.596 25.412 27.864 24.932 27.216 24.368C26.724 24.704 26.16 25.028 25.536 25.316L25.092 24.584C26.472 24.032 27.48 23.324 28.128 22.46H26.592V18.872C26.184 19.34 25.728 19.772 25.2 20.168L24.684 19.496C25.92 18.56 26.76 17.432 27.204 16.088L28.056 16.232C27.96 16.52 27.852 16.808 27.732 17.084H34.752V17.84H27.336ZM30.444 25.46C31.404 25.064 32.184 24.572 32.772 23.984H27.84C28.608 24.584 29.472 25.076 30.444 25.46ZM32.976 21.764V20.876H27.444V21.764H32.976ZM27.444 20.228H32.976V19.352H27.444V20.228ZM37.872 18.524C37.656 19.004 37.404 19.4 37.116 19.712L36.42 19.208C37.02 18.56 37.404 17.672 37.572 16.532L38.388 16.664C38.328 17.048 38.256 17.396 38.16 17.72H39.552V16.232H40.416V17.72H42.66V18.524H40.416V20.072H43.008V20.876H40.416V22.136H42.756V25.304C42.756 26.012 42.396 26.372 41.676 26.372H41.04L40.824 25.556L41.412 25.592C41.748 25.592 41.928 25.436 41.928 25.124V22.94H40.416V27.212H39.552V22.94H38.028V26.456H37.188V22.136H39.552V20.876H36.648V20.072H39.552V18.524H37.872ZM43.716 17.312H44.556V24.728H43.716V17.312ZM45.912 27.092H44.148L43.956 26.264C44.532 26.3 45.084 26.324 45.612 26.324C45.972 26.324 46.164 26.132 46.164 25.748V16.232H47.016V25.964C47.016 26.708 46.644 27.092 45.912 27.092Z" fill="#212930"/>
</svg>
