<svg width="78" height="43" viewBox="0 0 78 43" fill="none" xmlns="http://www.w3.org/2000/svg">
<path d="M59.8998 9.99912L76.6998 0.96875V10.7688M18.6998 32.145L0.299805 42.0354H76.6998V33.1688" stroke="#212930" stroke-width="0.8"/>
<path d="M18.7196 15.8359H27.9836V16.6519H24.8276V19.6279H28.2236V20.4559H19.6676V22.1359C19.6196 23.9119 19.1276 25.3399 18.1916 26.4079L17.5436 25.8319C18.3356 24.9439 18.7556 23.7199 18.8036 22.1359V19.6279H21.8636V16.6519H18.7196V15.8359ZM22.6676 19.6279H24.0236V16.6519H22.6676V19.6279ZM26.5556 17.0959L27.2636 17.2879C27.0476 18.0199 26.7596 18.6679 26.4116 19.2199L25.7036 18.9679C26.0276 18.4759 26.3156 17.8519 26.5556 17.0959ZM20.0156 17.1199C20.3636 17.6839 20.6636 18.2839 20.9156 18.9319L20.2196 19.2439C19.9316 18.5239 19.6196 17.8999 19.2836 17.3599L20.0156 17.1199ZM31.0436 20.5639H39.1436V21.3319H31.0436V20.5639ZM30.0476 22.3159H40.1516V23.0959H35.7116V25.4719C35.7116 26.0719 35.3756 26.3719 34.7156 26.3719H33.5636L33.3956 25.5919C33.7556 25.6279 34.1036 25.6519 34.4396 25.6519C34.7036 25.6519 34.8356 25.5199 34.8356 25.2679V23.0959H30.0476V22.3159ZM37.6316 23.6959C38.5676 24.2239 39.4196 24.8839 40.1996 25.6519L39.7076 26.3959C38.8916 25.5319 38.0516 24.8479 37.1996 24.3439L37.6316 23.6959ZM32.3636 23.6719L32.9636 24.1999C32.3156 25.0159 31.5116 25.7239 30.5516 26.3239L30.0116 25.6399C30.9476 25.0759 31.7276 24.4159 32.3636 23.6719ZM30.0596 16.4239H32.1596V15.3439H33.0116V16.4239H34.8236V17.2159H33.0116V17.4199C33.5756 17.7559 34.1396 18.1399 34.7156 18.5719L34.2476 19.2559C33.7556 18.7279 33.3476 18.3199 33.0116 18.0199V20.0959H32.1596V17.9119C31.6436 18.7279 31.0316 19.4239 30.3236 19.9759L29.8436 19.2679C30.7436 18.6919 31.4636 18.0079 32.0036 17.2159H30.0596V16.4239ZM35.3756 16.4359H37.1036V15.3319H37.9556V16.4359H40.1396V17.2159H38.3756C38.7956 17.9719 39.4676 18.6439 40.4036 19.2439L39.8516 19.9399C38.9876 19.1719 38.3516 18.3439 37.9556 17.4319V20.1079H37.1036V17.4919C36.6116 18.5239 36.0116 19.3759 35.2916 20.0479L34.8116 19.3279C35.6036 18.7279 36.2276 18.0319 36.7076 17.2159H35.3756V16.4359ZM44.4356 17.0119C44.2556 17.2999 44.0636 17.5759 43.8596 17.8399H50.9156V21.6319H46.1636C45.9836 21.9199 45.7796 22.1839 45.5636 22.4479H50.9396V23.0719C50.3396 23.8399 49.5476 24.4639 48.5636 24.9679C49.7156 25.3039 51.0116 25.4959 52.4276 25.5439L52.2236 26.3359C50.4716 26.2519 48.8996 25.9519 47.5316 25.4239C46.1156 25.9519 44.4116 26.2639 42.3956 26.3839L42.0476 25.6279C43.7876 25.5559 45.2756 25.3399 46.5116 24.9799C45.6956 24.5839 44.9636 24.1039 44.3156 23.5399C43.8236 23.8759 43.2596 24.1999 42.6356 24.4879L42.1916 23.7559C43.5716 23.2039 44.5796 22.4959 45.2276 21.6319H43.6916V18.0439C43.2836 18.5119 42.8276 18.9439 42.2996 19.3399L41.7836 18.6679C43.0196 17.7319 43.8596 16.6039 44.3036 15.2599L45.1556 15.4039C45.0596 15.6919 44.9516 15.9799 44.8316 16.2559H51.8516V17.0119H44.4356ZM47.5436 24.6319C48.5036 24.2359 49.2836 23.7439 49.8716 23.1559H44.9396C45.7076 23.7559 46.5716 24.2479 47.5436 24.6319ZM50.0756 20.9359V20.0479H44.5436V20.9359H50.0756ZM44.5436 19.3999H50.0756V18.5239H44.5436V19.3999ZM54.9716 17.6959C54.7556 18.1759 54.5036 18.5719 54.2156 18.8839L53.5196 18.3799C54.1196 17.7319 54.5036 16.8439 54.6716 15.7039L55.4876 15.8359C55.4276 16.2199 55.3556 16.5679 55.2596 16.8919H56.6516V15.4039H57.5156V16.8919H59.7596V17.6959H57.5156V19.2439H60.1076V20.0479H57.5156V21.3079H59.8556V24.4759C59.8556 25.1839 59.4956 25.5439 58.7756 25.5439H58.1396L57.9236 24.7279L58.5116 24.7639C58.8476 24.7639 59.0276 24.6079 59.0276 24.2959V22.1119H57.5156V26.3839H56.6516V22.1119H55.1276V25.6279H54.2876V21.3079H56.6516V20.0479H53.7476V19.2439H56.6516V17.6959H54.9716ZM60.8156 16.4839H61.6556V23.8999H60.8156V16.4839ZM63.0116 26.2639H61.2476L61.0556 25.4359C61.6316 25.4719 62.1836 25.4959 62.7116 25.4959C63.0716 25.4959 63.2636 25.3039 63.2636 24.9199V15.4039H64.1156V25.1359C64.1156 25.8799 63.7436 26.2639 63.0116 26.2639Z" fill="#212930"/>
<path d="M7.80613 1.05063L4.76138 3.71479C4.72756 3.74438 4.72474 3.79601 4.75514 3.82911L10.464 10.0455C10.5215 10.108 10.624 10.0497 10.5996 9.96837L7.93544 1.08785C7.91871 1.03209 7.84994 1.0123 7.80613 1.05063Z" stroke="#212930" stroke-width="0.8"/>
<path d="M3.52308 10.2192L4.25914 7.64302C4.27665 7.58173 4.35531 7.56453 4.3968 7.61293L7.34102 11.0479C7.39133 11.1065 7.33738 11.1954 7.2621 11.1778L3.58183 10.3191C3.5373 10.3087 3.51052 10.2632 3.52308 10.2192Z" stroke="#212930" stroke-width="0.8"/>
</svg>
