<svg width="55" height="37" viewBox="0 0 55 37" fill="none" xmlns="http://www.w3.org/2000/svg">
<path d="M0.700195 10.4969V7.69688C0.700195 4.16225 3.56557 1.29688 7.1002 1.29688H47.9002C51.4348 1.29688 54.3002 4.16225 54.3002 7.69688V10.4969M0.700195 27.2969V29.2969C0.700195 32.8315 3.56558 35.6969 7.1002 35.6969H47.9002C51.4348 35.6969 54.3002 32.8315 54.3002 29.2969V27.2969" stroke="#212930" stroke-width="0.8"/>
<path d="M3.1001 10.2255V8.49531C3.1001 5.84435 5.24913 3.69531 7.9001 3.69531H47.1001C49.7511 3.69531 51.9001 5.84435 51.9001 8.49531V10.2255M3.1001 27.4721V29.2953C3.1001 31.9463 5.24913 34.0953 7.90009 34.0953H47.1001C49.7511 34.0953 51.9001 31.9463 51.9001 29.2953V27.4721" stroke="#212930" stroke-width="0.8"/>
<path d="M5.62 13.664H14.884V14.48H11.728V17.456H15.124V18.284H6.568V19.964C6.52 21.74 6.028 23.168 5.092 24.236L4.444 23.66C5.236 22.772 5.656 21.548 5.704 19.964V17.456H8.764V14.48H5.62V13.664ZM9.568 17.456H10.924V14.48H9.568V17.456ZM13.456 14.924L14.164 15.116C13.948 15.848 13.66 16.496 13.312 17.048L12.604 16.796C12.928 16.304 13.216 15.68 13.456 14.924ZM6.916 14.948C7.264 15.512 7.564 16.112 7.816 16.76L7.12 17.072C6.832 16.352 6.52 15.728 6.184 15.188L6.916 14.948ZM17.944 18.392H26.044V19.16H17.944V18.392ZM16.948 20.144H27.052V20.924H22.612V23.3C22.612 23.9 22.276 24.2 21.616 24.2H20.464L20.296 23.42C20.656 23.456 21.004 23.48 21.34 23.48C21.604 23.48 21.736 23.348 21.736 23.096V20.924H16.948V20.144ZM24.532 21.524C25.468 22.052 26.32 22.712 27.1 23.48L26.608 24.224C25.792 23.36 24.952 22.676 24.1 22.172L24.532 21.524ZM19.264 21.5L19.864 22.028C19.216 22.844 18.412 23.552 17.452 24.152L16.912 23.468C17.848 22.904 18.628 22.244 19.264 21.5ZM16.96 14.252H19.06V13.172H19.912V14.252H21.724V15.044H19.912V15.248C20.476 15.584 21.04 15.968 21.616 16.4L21.148 17.084C20.656 16.556 20.248 16.148 19.912 15.848V17.924H19.06V15.74C18.544 16.556 17.932 17.252 17.224 17.804L16.744 17.096C17.644 16.52 18.364 15.836 18.904 15.044H16.96V14.252ZM22.276 14.264H24.004V13.16H24.856V14.264H27.04V15.044H25.276C25.696 15.8 26.368 16.472 27.304 17.072L26.752 17.768C25.888 17 25.252 16.172 24.856 15.26V17.936H24.004V15.32C23.512 16.352 22.912 17.204 22.192 17.876L21.712 17.156C22.504 16.556 23.128 15.86 23.608 15.044H22.276V14.264ZM31.336 14.84C31.156 15.128 30.964 15.404 30.76 15.668H37.816V19.46H33.064C32.884 19.748 32.68 20.012 32.464 20.276H37.84V20.9C37.24 21.668 36.448 22.292 35.464 22.796C36.616 23.132 37.912 23.324 39.328 23.372L39.124 24.164C37.372 24.08 35.8 23.78 34.432 23.252C33.016 23.78 31.312 24.092 29.296 24.212L28.948 23.456C30.688 23.384 32.176 23.168 33.412 22.808C32.596 22.412 31.864 21.932 31.216 21.368C30.724 21.704 30.16 22.028 29.536 22.316L29.092 21.584C30.472 21.032 31.48 20.324 32.128 19.46H30.592V15.872C30.184 16.34 29.728 16.772 29.2 17.168L28.684 16.496C29.92 15.56 30.76 14.432 31.204 13.088L32.056 13.232C31.96 13.52 31.852 13.808 31.732 14.084H38.752V14.84H31.336ZM34.444 22.46C35.404 22.064 36.184 21.572 36.772 20.984H31.84C32.608 21.584 33.472 22.076 34.444 22.46ZM36.976 18.764V17.876H31.444V18.764H36.976ZM31.444 17.228H36.976V16.352H31.444V17.228ZM41.872 15.524C41.656 16.004 41.404 16.4 41.116 16.712L40.42 16.208C41.02 15.56 41.404 14.672 41.572 13.532L42.388 13.664C42.328 14.048 42.256 14.396 42.16 14.72H43.552V13.232H44.416V14.72H46.66V15.524H44.416V17.072H47.008V17.876H44.416V19.136H46.756V22.304C46.756 23.012 46.396 23.372 45.676 23.372H45.04L44.824 22.556L45.412 22.592C45.748 22.592 45.928 22.436 45.928 22.124V19.94H44.416V24.212H43.552V19.94H42.028V23.456H41.188V19.136H43.552V17.876H40.648V17.072H43.552V15.524H41.872ZM47.716 14.312H48.556V21.728H47.716V14.312ZM49.912 24.092H48.148L47.956 23.264C48.532 23.3 49.084 23.324 49.612 23.324C49.972 23.324 50.164 23.132 50.164 22.748V13.232H51.016V22.964C51.016 23.708 50.644 24.092 49.912 24.092Z" fill="#212930"/>
</svg>
