<svg width="67" height="41" viewBox="0 0 67 41" fill="none" xmlns="http://www.w3.org/2000/svg">
<path d="M14.1367 11.3C17.4667 4.88358 24.1713 0.5 31.8998 0.5C39.6282 0.5 46.3328 4.88358 49.6628 11.3M49.6628 29.7C46.3328 36.1164 39.6282 40.5 31.8998 40.5C24.1713 40.5 17.4667 36.1164 14.1367 29.7" stroke="#212930" stroke-width="0.8"/>
<path d="M46.3 11.4206C43.2548 6.77786 37.9432 3.70312 31.9 3.70312C25.8568 3.70312 20.5452 6.77786 17.5 11.4206M17.8534 30.1031C20.946 34.4555 26.0842 37.3031 31.9 37.3031C37.7158 37.3031 42.854 34.4555 45.9466 30.1031" stroke="#212930" stroke-width="0.8"/>
<path d="M44.0104 11.2969C41.2315 7.6505 36.8407 5.29688 31.8997 5.29688C26.9587 5.29688 22.5679 7.6505 19.7891 11.2969M20.1046 30.0969C22.8941 33.5145 27.1418 35.6969 31.8997 35.6969C36.6576 35.6969 40.9053 33.5145 43.6948 30.0969" stroke="#212930" stroke-width="0.8"/>
<path d="M10.62 14.664H19.884V15.48H16.728V18.456H20.124V19.284H11.568V20.964C11.52 22.74 11.028 24.168 10.092 25.236L9.444 24.66C10.236 23.772 10.656 22.548 10.704 20.964V18.456H13.764V15.48H10.62V14.664ZM14.568 18.456H15.924V15.48H14.568V18.456ZM18.456 15.924L19.164 16.116C18.948 16.848 18.66 17.496 18.312 18.048L17.604 17.796C17.928 17.304 18.216 16.68 18.456 15.924ZM11.916 15.948C12.264 16.512 12.564 17.112 12.816 17.76L12.12 18.072C11.832 17.352 11.52 16.728 11.184 16.188L11.916 15.948ZM22.944 19.392H31.044V20.16H22.944V19.392ZM21.948 21.144H32.052V21.924H27.612V24.3C27.612 24.9 27.276 25.2 26.616 25.2H25.464L25.296 24.42C25.656 24.456 26.004 24.48 26.34 24.48C26.604 24.48 26.736 24.348 26.736 24.096V21.924H21.948V21.144ZM29.532 22.524C30.468 23.052 31.32 23.712 32.1 24.48L31.608 25.224C30.792 24.36 29.952 23.676 29.1 23.172L29.532 22.524ZM24.264 22.5L24.864 23.028C24.216 23.844 23.412 24.552 22.452 25.152L21.912 24.468C22.848 23.904 23.628 23.244 24.264 22.5ZM21.96 15.252H24.06V14.172H24.912V15.252H26.724V16.044H24.912V16.248C25.476 16.584 26.04 16.968 26.616 17.4L26.148 18.084C25.656 17.556 25.248 17.148 24.912 16.848V18.924H24.06V16.74C23.544 17.556 22.932 18.252 22.224 18.804L21.744 18.096C22.644 17.52 23.364 16.836 23.904 16.044H21.96V15.252ZM27.276 15.264H29.004V14.16H29.856V15.264H32.04V16.044H30.276C30.696 16.8 31.368 17.472 32.304 18.072L31.752 18.768C30.888 18 30.252 17.172 29.856 16.26V18.936H29.004V16.32C28.512 17.352 27.912 18.204 27.192 18.876L26.712 18.156C27.504 17.556 28.128 16.86 28.608 16.044H27.276V15.264ZM36.336 15.84C36.156 16.128 35.964 16.404 35.76 16.668H42.816V20.46H38.064C37.884 20.748 37.68 21.012 37.464 21.276H42.84V21.9C42.24 22.668 41.448 23.292 40.464 23.796C41.616 24.132 42.912 24.324 44.328 24.372L44.124 25.164C42.372 25.08 40.8 24.78 39.432 24.252C38.016 24.78 36.312 25.092 34.296 25.212L33.948 24.456C35.688 24.384 37.176 24.168 38.412 23.808C37.596 23.412 36.864 22.932 36.216 22.368C35.724 22.704 35.16 23.028 34.536 23.316L34.092 22.584C35.472 22.032 36.48 21.324 37.128 20.46H35.592V16.872C35.184 17.34 34.728 17.772 34.2 18.168L33.684 17.496C34.92 16.56 35.76 15.432 36.204 14.088L37.056 14.232C36.96 14.52 36.852 14.808 36.732 15.084H43.752V15.84H36.336ZM39.444 23.46C40.404 23.064 41.184 22.572 41.772 21.984H36.84C37.608 22.584 38.472 23.076 39.444 23.46ZM41.976 19.764V18.876H36.444V19.764H41.976ZM36.444 18.228H41.976V17.352H36.444V18.228ZM46.872 16.524C46.656 17.004 46.404 17.4 46.116 17.712L45.42 17.208C46.02 16.56 46.404 15.672 46.572 14.532L47.388 14.664C47.328 15.048 47.256 15.396 47.16 15.72H48.552V14.232H49.416V15.72H51.66V16.524H49.416V18.072H52.008V18.876H49.416V20.136H51.756V23.304C51.756 24.012 51.396 24.372 50.676 24.372H50.04L49.824 23.556L50.412 23.592C50.748 23.592 50.928 23.436 50.928 23.124V20.94H49.416V25.212H48.552V20.94H47.028V24.456H46.188V20.136H48.552V18.876H45.648V18.072H48.552V16.524H46.872ZM52.716 15.312H53.556V22.728H52.716V15.312ZM54.912 25.092H53.148L52.956 24.264C53.532 24.3 54.084 24.324 54.612 24.324C54.972 24.324 55.164 24.132 55.164 23.748V14.232H56.016V23.964C56.016 24.708 55.644 25.092 54.912 25.092Z" fill="#212930"/>
<circle cx="3.5002" cy="36.9016" r="2.4" stroke="#212930" stroke-width="0.8"/>
<circle cx="57.9001" cy="3.3" r="2.4" stroke="#212930" stroke-width="0.8"/>
<circle cx="64.2998" cy="5.70312" r="1.6" stroke="#212930" stroke-width="0.8"/>
</svg>
