<svg width="71" height="43" viewBox="0 0 71 43" fill="none" xmlns="http://www.w3.org/2000/svg">
<path d="M29.7 13.8891L39.2364 1.38032C39.2684 1.33833 39.3316 1.33833 39.3636 1.38032L48.9 13.8891M16.1238 31.6969L8.59797 41.5684C8.55782 41.621 8.59537 41.6969 8.66159 41.6969H69.9384C70.0046 41.6969 70.0422 41.621 70.002 41.5684L62.4762 31.6969" stroke="#212930" stroke-width="0.8"/>
<path d="M32.4429 17.8751L39.2364 8.98166C39.2684 8.93975 39.3316 8.93975 39.3636 8.98166L46.1571 17.8751M21.9455 30.5697L16.5982 37.5699C16.558 37.6225 16.5955 37.6984 16.6618 37.6984H61.9382C62.0045 37.6984 62.042 37.6225 62.0018 37.5699L56.6545 30.5697" stroke="#212930" stroke-width="0.8"/>
<path d="M0.957791 31.1842L3.22835 26.6431C3.25783 26.5841 3.34197 26.5841 3.37146 26.6431L5.64201 31.1842C5.66861 31.2374 5.62993 31.3 5.57046 31.3H1.02935C0.969875 31.3 0.931195 31.2374 0.957791 31.1842Z" stroke="#212930" stroke-width="0.8"/>
<path d="M53.3577 14.3795L55.6283 9.83842C55.6577 9.77946 55.7419 9.77946 55.7714 9.83842L58.0419 14.3795C58.0685 14.4327 58.0298 14.4953 57.9704 14.4953H53.4292C53.3698 14.4953 53.3311 14.4327 53.3577 14.3795Z" stroke="#212930" stroke-width="0.8"/>
<path d="M6.15799 35.178L7.62854 32.2369C7.65803 32.1779 7.74217 32.1779 7.77165 32.2369L9.24221 35.178C9.26881 35.2312 9.23013 35.2938 9.17066 35.2938H6.22954C6.17007 35.2938 6.13139 35.2312 6.15799 35.178Z" stroke="#212930" stroke-width="0.8"/>
<path d="M17.9198 18.5624H27.1838V19.3784H24.0278V22.3544H27.4238V23.1824H18.8678V24.8624C18.8198 26.6384 18.3278 28.0664 17.3918 29.1344L16.7438 28.5584C17.5358 27.6704 17.9558 26.4464 18.0038 24.8624V22.3544H21.0638V19.3784H17.9198V18.5624ZM21.8678 22.3544H23.2238V19.3784H21.8678V22.3544ZM25.7558 19.8224L26.4638 20.0144C26.2478 20.7464 25.9598 21.3944 25.6118 21.9464L24.9038 21.6944C25.2278 21.2024 25.5158 20.5784 25.7558 19.8224ZM19.2158 19.8464C19.5638 20.4104 19.8638 21.0104 20.1158 21.6584L19.4198 21.9704C19.1318 21.2504 18.8198 20.6264 18.4838 20.0864L19.2158 19.8464ZM30.2438 23.2904H38.3438V24.0584H30.2438V23.2904ZM29.2478 25.0424H39.3518V25.8224H34.9118V28.1984C34.9118 28.7984 34.5758 29.0984 33.9158 29.0984H32.7638L32.5958 28.3184C32.9558 28.3544 33.3038 28.3784 33.6398 28.3784C33.9038 28.3784 34.0358 28.2464 34.0358 27.9944V25.8224H29.2478V25.0424ZM36.8318 26.4224C37.7678 26.9504 38.6198 27.6104 39.3998 28.3784L38.9078 29.1224C38.0918 28.2584 37.2518 27.5744 36.3998 27.0704L36.8318 26.4224ZM31.5638 26.3984L32.1638 26.9264C31.5158 27.7424 30.7118 28.4504 29.7518 29.0504L29.2118 28.3664C30.1478 27.8024 30.9278 27.1424 31.5638 26.3984ZM29.2598 19.1504H31.3598V18.0704H32.2118V19.1504H34.0238V19.9424H32.2118V20.1464C32.7758 20.4824 33.3398 20.8664 33.9158 21.2984L33.4478 21.9824C32.9558 21.4544 32.5478 21.0464 32.2118 20.7464V22.8224H31.3598V20.6384C30.8438 21.4544 30.2318 22.1504 29.5238 22.7024L29.0438 21.9944C29.9438 21.4184 30.6638 20.7344 31.2038 19.9424H29.2598V19.1504ZM34.5758 19.1624H36.3038V18.0584H37.1558V19.1624H39.3398V19.9424H37.5758C37.9958 20.6984 38.6678 21.3704 39.6038 21.9704L39.0518 22.6664C38.1878 21.8984 37.5518 21.0704 37.1558 20.1584V22.8344H36.3038V20.2184C35.8118 21.2504 35.2118 22.1024 34.4918 22.7744L34.0118 22.0544C34.8038 21.4544 35.4278 20.7584 35.9078 19.9424H34.5758V19.1624ZM43.6358 19.7384C43.4558 20.0264 43.2638 20.3024 43.0598 20.5664H50.1158V24.3584H45.3638C45.1838 24.6464 44.9798 24.9104 44.7638 25.1744H50.1398V25.7984C49.5398 26.5664 48.7478 27.1904 47.7638 27.6944C48.9158 28.0304 50.2118 28.2224 51.6278 28.2704L51.4238 29.0624C49.6718 28.9784 48.0998 28.6784 46.7318 28.1504C45.3158 28.6784 43.6118 28.9904 41.5958 29.1104L41.2478 28.3544C42.9878 28.2824 44.4758 28.0664 45.7118 27.7064C44.8958 27.3104 44.1638 26.8304 43.5158 26.2664C43.0238 26.6024 42.4598 26.9264 41.8358 27.2144L41.3918 26.4824C42.7718 25.9304 43.7798 25.2224 44.4278 24.3584H42.8918V20.7704C42.4838 21.2384 42.0278 21.6704 41.4998 22.0664L40.9838 21.3944C42.2198 20.4584 43.0598 19.3304 43.5038 17.9864L44.3558 18.1304C44.2598 18.4184 44.1518 18.7064 44.0318 18.9824H51.0518V19.7384H43.6358ZM46.7438 27.3584C47.7038 26.9624 48.4838 26.4704 49.0718 25.8824H44.1398C44.9078 26.4824 45.7718 26.9744 46.7438 27.3584ZM49.2758 23.6624V22.7744H43.7438V23.6624H49.2758ZM43.7438 22.1264H49.2758V21.2504H43.7438V22.1264ZM54.1718 20.4224C53.9558 20.9024 53.7038 21.2984 53.4158 21.6104L52.7198 21.1064C53.3198 20.4584 53.7038 19.5704 53.8718 18.4304L54.6878 18.5624C54.6278 18.9464 54.5558 19.2944 54.4598 19.6184H55.8518V18.1304H56.7158V19.6184H58.9598V20.4224H56.7158V21.9704H59.3078V22.7744H56.7158V24.0344H59.0558V27.2024C59.0558 27.9104 58.6958 28.2704 57.9758 28.2704H57.3398L57.1238 27.4544L57.7118 27.4904C58.0478 27.4904 58.2278 27.3344 58.2278 27.0224V24.8384H56.7158V29.1104H55.8518V24.8384H54.3278V28.3544H53.4878V24.0344H55.8518V22.7744H52.9478V21.9704H55.8518V20.4224H54.1718ZM60.0158 19.2104H60.8558V26.6264H60.0158V19.2104ZM62.2118 28.9904H60.4478L60.2558 28.1624C60.8318 28.1984 61.3838 28.2224 61.9118 28.2224C62.2718 28.2224 62.4638 28.0304 62.4638 27.6464V18.1304H63.3158V27.8624C63.3158 28.6064 62.9438 28.9904 62.2118 28.9904Z" fill="#212930"/>
</svg>
