<svg width="25" height="15" viewBox="0 0 25 15" fill="none" xmlns="http://www.w3.org/2000/svg">
<rect y="0.5" width="25" height="14" rx="1.75" fill="url(#paint0_linear_12711_21338)"/>
<path fill-rule="evenodd" clip-rule="evenodd" d="M5.88486 3.89844H4.36914L6.27221 11.1869H7.65549L11.6622 3.89844H10.1869L7.23612 9.48308L5.88486 3.89844Z" fill="#985A10"/>
<path fill-rule="evenodd" clip-rule="evenodd" d="M13.7973 3.89844H12.3902L11.3594 11.1869H12.7665L13.7973 3.89844Z" fill="#985A10"/>
<path fill-rule="evenodd" clip-rule="evenodd" d="M18.4313 3.89844H15.4772L14.4464 11.1869H15.8535L16.1558 9.04963H17.7028C18.6195 9.04963 19.3884 8.81232 19.9597 8.35805C20.5327 7.90251 20.8924 7.24039 21.0086 6.41832C21.1208 5.62534 20.9436 4.99051 20.4957 4.55554C20.0498 4.12242 19.3468 3.89844 18.4313 3.89844ZM17.8315 7.77791H16.3356L16.7044 5.17016H18.2003C18.7416 5.17016 19.1326 5.27972 19.3724 5.48845C19.6084 5.6938 19.7109 6.00649 19.6484 6.44871C19.5835 6.90728 19.3898 7.23301 19.094 7.44684C18.794 7.66363 18.372 7.77791 17.8315 7.77791Z" fill="#985A10"/>
<defs>
<linearGradient id="paint0_linear_12711_21338" x1="25.4464" y1="4" x2="0.0677734" y2="10.8149" gradientUnits="userSpaceOnUse">
<stop stop-color="#FFC988"/>
<stop offset="1" stop-color="#FFE4C2"/>
</linearGradient>
</defs>
</svg>
