<svg width="49" height="16" viewBox="0 0 49 16" fill="none" xmlns="http://www.w3.org/2000/svg">
<path fill-rule="evenodd" clip-rule="evenodd" d="M14.2656 7.60156H15.6953V5.23438H16.5156V7.60156H18.1211V8.375H16.5156V10.1484L17.2471 10.0625L18.4258 9.92188L18.3809 10.3047L18.3438 10.7422L16.5156 10.9531V13.6016H15.6953V11.0469L13.1641 11.375L13.0586 10.4961L15.6953 10.2344V8.375H13.3867V7.63672L13.9404 6.19141C14.1426 5.64453 14.3252 5.13281 14.4883 4.64844H13.2461V3.875H14.7402C14.959 3.17188 15.1289 2.54688 15.25 2L16.1875 2.1875L15.6309 3.875H18.0742V4.64844H15.3672L14.9336 5.85547C14.7148 6.44922 14.4922 7.03125 14.2656 7.60156ZM20.4883 5.375H21.4023C21.4023 6.1875 21.3867 6.9375 21.3555 7.625C21.9688 10.2969 23.125 12.0195 24.8242 12.793L24.0859 13.6016C22.6641 12.8125 21.6465 11.4062 21.0332 9.39062C20.6152 11.1562 19.4922 12.5898 17.6641 13.6836C17.4844 13.4258 17.2852 13.168 17.0664 12.9102C19.1992 11.7383 20.3281 9.99609 20.4531 7.68359L20.4775 6.83984L20.4883 5.375ZM17.5586 6.66406C17.8867 6.18359 18.1953 5.65625 18.4854 5.07812C18.9395 4.17188 19.3447 3.14453 19.7031 2L20.6289 2.24609C20.4141 2.85547 20.1914 3.43359 19.9609 3.98047H24.5664V4.76562L23.3477 7.02734L22.4336 6.82812L23.4883 4.78906H19.6094C19.4424 5.15625 19.2725 5.50781 19.0986 5.84375C18.8574 6.3125 18.6094 6.74609 18.3555 7.15625C18.1289 7.00781 17.8633 6.84375 17.5586 6.66406ZM31.3867 2.0625C30.832 3.42188 30.0234 4.67578 28.9609 5.82422C29.0342 5.90625 29.1113 6 29.1924 6.10938C29.293 6.24609 29.3994 6.40625 29.5117 6.58594C29.75 6.30469 29.9805 6.01562 30.2031 5.71094V13.5703H31.0234V12.8555H36.4727V12.0586H34.0469V10.2188H36.2852V9.42188H34.0469V7.58203H36.2969V6.78516H34.0469V4.95703H36.4492V4.16016H33.7129L34.4336 3.72656C34.1133 3.1875 33.7617 2.64062 33.3789 2.08594L32.7109 2.48438C33.1055 3.08984 33.4316 3.64844 33.6895 4.16016H31.2402C31.5801 3.59375 31.9023 2.99609 32.207 2.36719L31.3867 2.0625ZM25.9385 10.2227C25.6338 10.625 25.3096 11.0039 24.9648 11.3555L25.1406 11.5508L25.3018 11.7539L25.5039 12.0586C26.0459 11.4883 26.5352 10.832 26.9717 10.082C27.2275 9.64062 27.4648 9.17188 27.6836 8.67188V12.1289C27.6836 12.4961 27.4844 12.6797 27.0859 12.6797L26.8086 12.6719C26.624 12.6602 26.4072 12.6406 26.1602 12.6094C26.2227 12.9375 26.2734 13.2461 26.3125 13.5352H27.3789C28.1133 13.5352 28.4805 13.1289 28.4805 12.3164V7.76953H29.6289V6.97266H28.4805V3.62109H29.6758V2.82422H25.3516V3.62109H27.6836V6.97266H26.1836L26.5938 4.46484H25.7852L25.3633 6.99609V7.76953H27.4141C26.9893 8.67188 26.4971 9.48828 25.9385 10.2227ZM33.2266 12.0586H31.0234V10.2188H33.2266V12.0586ZM33.2266 9.42188H31.0234V7.58203H33.2266V9.42188ZM33.2266 6.78516H31.0234V4.95703H33.2266V6.78516ZM42.3906 10.1133H37.0938V10.8984H48.6133V10.1133H43.3281V8.96484H47.793V8.19141H43.3281V7.04297H46.7031V7.41797H47.582V2.625H38.1367V7.41797H39.0156V7.04297H42.3906V8.19141H37.9961V8.96484H42.3906V10.1133ZM43.3281 3.41016H46.7031V6.25781H43.3281V3.41016ZM42.3906 6.25781H39.0156V3.41016H42.3906V6.25781ZM46.75 11.0039L46.0469 11.5195C46.6328 12.207 47.2109 12.9219 47.7812 13.6641L48.543 13.043C48.2314 12.6719 47.9111 12.3008 47.583 11.9297L46.75 11.0039ZM39.1914 11.4023L38.3359 11.0625C38.0078 11.8438 37.6172 12.5898 37.1641 13.3008L38.0195 13.6758L38.3203 13.1523C38.5947 12.6562 38.8848 12.0742 39.1914 11.4023ZM43.8789 11.0859L43.1406 11.4727C43.5234 12.1133 43.8789 12.7812 44.207 13.4766L45.0391 13.0078C44.8711 12.6953 44.6992 12.3906 44.5234 12.0977L44.1328 11.4688L43.8789 11.0859ZM41.1016 11.1797L40.3398 11.5195C40.5439 11.918 40.7422 12.332 40.9346 12.7617L41.2773 13.5586L42.1328 13.1367C41.8125 12.4648 41.4688 11.8125 41.1016 11.1797ZM45.168 3.77344C44.8008 4.41406 44.4023 5.01172 43.9727 5.56641L44.6758 6.01172C45.082 5.49609 45.5234 4.90625 46 4.24219L45.168 3.77344ZM40.3281 3.79688L39.6602 4.25391C40.0664 4.76953 40.4531 5.32812 40.8203 5.92969L41.582 5.39062C41.3994 5.08594 41.1357 4.72656 40.791 4.32031L40.3281 3.79688ZM10.5977 2.25781L9.80078 2.11719C9.53516 4.07031 9.05859 5.71484 8.37109 7.05078C8.58984 7.25391 8.77734 7.45703 8.93359 7.66016C9.07422 7.37891 9.20703 7.08594 9.33203 6.78906C9.42578 8.13281 9.69141 9.35156 10.1289 10.4375C9.66797 11.3125 9.01172 12.1523 8.16016 12.957L8.4707 13.3359L8.73438 13.6953C9.47266 12.9414 10.0762 12.1562 10.5449 11.3398C10.998 12.1875 11.5703 12.9453 12.2617 13.6133L12.7539 12.7109C12.2041 12.2422 11.7344 11.7031 11.3438 11.0898C11.2178 10.8945 11.0996 10.6914 10.9902 10.4766C11.5801 9.17188 11.957 7.40234 12.1211 5.16406H12.6836V4.32031H10.1582C10.3262 3.66797 10.4727 2.98047 10.5977 2.25781ZM4.24609 3.18359V6.05469H7.69141V6.42969H8.44141V3.17188H7.69141V5.25781H6.73047V2.28125H5.95703V5.25781H4.99609V3.18359H4.24609ZM5.40625 9.79297H6.95312V10.9766C6.95312 11.1523 6.92676 11.3086 6.875 11.4492C6.82227 11.5898 6.74316 11.7148 6.63672 11.8203L7.23438 12.5703L7.70312 12.1016C8.25 11.6016 8.73828 11.1797 9.16797 10.8359L8.96875 9.93359C8.50781 10.3555 8.09766 10.7227 7.73828 11.0352V8.99609H4.62109V10.2383C4.62109 11.3945 4.3125 12.1758 3.69531 12.582C3.91406 12.8633 4.08984 13.1133 4.22266 13.332C5.01172 12.7383 5.40625 11.7383 5.40625 10.332V9.79297ZM3.25 5.36328C2.63281 6.76172 1.88281 7.97656 1 9.00781C1.10938 9.32031 1.21094 9.63281 1.30469 9.94531C1.65625 9.55859 1.99609 9.13281 2.32422 8.66797V13.5898H3.12109V7.4375C3.29102 7.14844 3.45801 6.84766 3.62109 6.53516C3.75781 6.27344 3.8916 6.00391 4.02344 5.72656L3.25 5.36328ZM9.91797 5.16406H11.3242C11.1562 7.07422 10.9004 8.51562 10.5566 9.48438C10.1191 8.28125 9.89453 6.875 9.88281 5.27344L9.91797 5.16406ZM3.27344 2.17578C2.78125 3.21484 2.04297 4.23438 1.05859 5.23438C1.16016 5.53906 1.25391 5.84375 1.33984 6.14844C2.42578 5.09375 3.3125 3.90625 4 2.58594L3.27344 2.17578ZM8.20703 7.09766H4.48047V7.91797H8.20703V7.09766Z" fill="black"/>
</svg>
